<mxfile host="65bd71144e" pages="2">
    <diagram name="ページ1" id="ydqwkZyjg0HZpgWhmnKC">
        <mxGraphModel dx="5610" dy="2316" grid="1" gridSize="10" guides="1" tooltips="1" connect="1" arrows="1" fold="1" page="1" pageScale="1" pageWidth="827" pageHeight="1169" math="0" shadow="0">
            <root>
                <mxCell id="0"/>
                <mxCell id="1" parent="0"/>
                <mxCell id="pJ7Jd_JKT5q2OkYUwG2T-1" value="1. Initial Permutation（初期置換）&lt;div&gt;&lt;br&gt;&lt;/div&gt;" style="rounded=0;whiteSpace=wrap;html=1;" parent="1" vertex="1">
                    <mxGeometry x="300" y="200" width="120" height="60" as="geometry"/>
                </mxCell>
                <mxCell id="pJ7Jd_JKT5q2OkYUwG2T-2" value="&lt;div&gt;IP = [2, 6, 3, 1, 4, 8, 5, 7]&lt;/div&gt;" style="text;html=1;align=center;verticalAlign=middle;resizable=0;points=[];autosize=1;strokeColor=none;fillColor=none;" parent="1" vertex="1">
                    <mxGeometry x="420" y="220" width="160" height="30" as="geometry"/>
                </mxCell>
                <mxCell id="pJ7Jd_JKT5q2OkYUwG2T-3" value="2. Complex function (fk)" style="swimlane;startSize=0;" parent="1" vertex="1">
                    <mxGeometry x="280" y="305" width="340" height="345" as="geometry"/>
                </mxCell>
                <mxCell id="pJ7Jd_JKT5q2OkYUwG2T-6" value="&lt;div&gt;&lt;div&gt;b. S-boxes (S0 and S1)&lt;/div&gt;&lt;/div&gt;" style="rounded=0;whiteSpace=wrap;html=1;" parent="pJ7Jd_JKT5q2OkYUwG2T-3" vertex="1">
                    <mxGeometry x="105" y="135" width="120" height="60" as="geometry"/>
                </mxCell>
                <mxCell id="pJ7Jd_JKT5q2OkYUwG2T-7" value="&lt;div&gt;c. Permutation P4&lt;/div&gt;" style="rounded=0;whiteSpace=wrap;html=1;" parent="pJ7Jd_JKT5q2OkYUwG2T-3" vertex="1">
                    <mxGeometry x="105" y="215" width="120" height="60" as="geometry"/>
                </mxCell>
                <mxCell id="pJ7Jd_JKT5q2OkYUwG2T-4" value="&lt;div&gt;a. Expanded Permutation (EP)&lt;br&gt;&lt;/div&gt;" style="rounded=0;whiteSpace=wrap;html=1;" parent="1" vertex="1">
                    <mxGeometry x="385" y="340" width="120" height="60" as="geometry"/>
                </mxCell>
                <mxCell id="pJ7Jd_JKT5q2OkYUwG2T-8" value="&lt;div&gt;3. Switch (SW) –&lt;/div&gt;&lt;div&gt;&lt;br&gt;&lt;/div&gt;" style="rounded=0;whiteSpace=wrap;html=1;" parent="1" vertex="1">
                    <mxGeometry x="390" y="711" width="120" height="60" as="geometry"/>
                </mxCell>
                <mxCell id="pJ7Jd_JKT5q2OkYUwG2T-9" value="&lt;div&gt;&lt;div&gt;4. Inverse of Initial Permutation (IP-1)&lt;/div&gt;&lt;/div&gt;" style="rounded=0;whiteSpace=wrap;html=1;" parent="1" vertex="1">
                    <mxGeometry x="390" y="870" width="120" height="60" as="geometry"/>
                </mxCell>
                <mxCell id="pJ7Jd_JKT5q2OkYUwG2T-10" value="&lt;div&gt;Entered 8-bit plaintext is - 1 0 0 1 0 1 1 1&lt;/div&gt;" style="text;html=1;align=center;verticalAlign=middle;resizable=0;points=[];autosize=1;strokeColor=none;fillColor=none;" parent="1" vertex="1">
                    <mxGeometry y="140" width="240" height="30" as="geometry"/>
                </mxCell>
                <mxCell id="pJ7Jd_JKT5q2OkYUwG2T-11" value="&lt;div&gt;IP(k1, k2, k3, k4, k5, k6, k7, k8) = (k2, k6, k3, k1, k4, k8, k5, k7)&lt;/div&gt;&lt;div&gt;After ip = 0 1 0 1 1 1 0 1&lt;/div&gt;&lt;div&gt;&lt;br&gt;&lt;/div&gt;&lt;div&gt;&lt;div&gt;l = 0 1 0 0&amp;nbsp; and r = 1 1 1 1&lt;/div&gt;&lt;/div&gt;" style="text;html=1;align=left;verticalAlign=middle;resizable=0;points=[];autosize=1;strokeColor=none;fillColor=none;" parent="1" vertex="1">
                    <mxGeometry x="10" y="255" width="360" height="70" as="geometry"/>
                </mxCell>
                <mxCell id="pJ7Jd_JKT5q2OkYUwG2T-12" value="" style="shape=image;verticalLabelPosition=bottom;labelBackgroundColor=default;verticalAlign=top;aspect=fixed;imageAspect=0;image=https://media.geeksforgeeks.org/wp-content/uploads/20210205163909/GFGPage10.png;" parent="1" vertex="1">
                    <mxGeometry x="660" y="270" width="561" height="191" as="geometry"/>
                </mxCell>
                <mxCell id="pJ7Jd_JKT5q2OkYUwG2T-13" value="&lt;div&gt;For l = 0 1 0 0&lt;/div&gt;&lt;div&gt;row = 00 = 0, column = 10 = 2&lt;/div&gt;&lt;div&gt;S0 = 3 = 11&lt;/div&gt;&lt;div&gt;&lt;br&gt;&lt;/div&gt;&lt;div&gt;For r = 1 1 1 1&amp;nbsp;&lt;/div&gt;&lt;div&gt;row = 11 = 3, column = 11 = 3&lt;/div&gt;&lt;div&gt;S1 = 3 = 11&lt;/div&gt;&lt;div&gt;&lt;br&gt;&lt;/div&gt;&lt;div&gt;After first S-Boxes combining S0 and S1 = 1 1 1 1&lt;/div&gt;" style="text;html=1;align=left;verticalAlign=middle;resizable=0;points=[];autosize=1;strokeColor=none;fillColor=none;" parent="1" vertex="1">
                    <mxGeometry x="10" y="350" width="290" height="140" as="geometry"/>
                </mxCell>
                <mxCell id="pJ7Jd_JKT5q2OkYUwG2T-14" value="&lt;div&gt;P4(k1, k2, k3, k4) = (k2, k4, k3, k1)&lt;/div&gt;&lt;div&gt;After P4 = 1 1 1 1&lt;/div&gt;" style="text;html=1;align=left;verticalAlign=middle;resizable=0;points=[];autosize=1;strokeColor=none;fillColor=none;" parent="1" vertex="1">
                    <mxGeometry x="10" y="510" width="210" height="40" as="geometry"/>
                </mxCell>
                <mxCell id="pJ7Jd_JKT5q2OkYUwG2T-15" value="" style="shape=image;verticalLabelPosition=bottom;labelBackgroundColor=default;verticalAlign=top;aspect=fixed;imageAspect=0;image=https://media.geeksforgeeks.org/wp-content/uploads/20210205163910/GFGPage11.png;" parent="1" vertex="1">
                    <mxGeometry x="680" y="570" width="241" height="181" as="geometry"/>
                </mxCell>
                <mxCell id="pJ7Jd_JKT5q2OkYUwG2T-16" value="&lt;div&gt;(0 1 0 1) XOR (1 1 1 1) = 1 0 1 0&lt;/div&gt;&lt;div&gt;After XOR operation with left nibble of after ip = 1 0 1 0&lt;/div&gt;&lt;div&gt;&lt;br&gt;&lt;/div&gt;" style="text;html=1;align=left;verticalAlign=middle;resizable=0;points=[];autosize=1;strokeColor=none;fillColor=none;" parent="1" vertex="1">
                    <mxGeometry x="10" y="563" width="310" height="60" as="geometry"/>
                </mxCell>
                <mxCell id="pJ7Jd_JKT5q2OkYUwG2T-17" value="&lt;div&gt;After step 3 = 1 1 0 1 1 0 1 0&lt;/div&gt;&lt;div&gt;&lt;br&gt;&lt;/div&gt;" style="text;html=1;align=left;verticalAlign=middle;resizable=0;points=[];autosize=1;strokeColor=none;fillColor=none;" parent="1" vertex="1">
                    <mxGeometry x="10" y="711" width="180" height="40" as="geometry"/>
                </mxCell>
                <mxCell id="pJ7Jd_JKT5q2OkYUwG2T-18" value="&lt;div&gt;Combine 1 1 0 1 and 1 0 1 0&lt;/div&gt;&lt;div&gt;After combine = 1 0 1 0 1 1 0 1&lt;/div&gt;&lt;div style=&quot;&quot;&gt;&lt;br&gt;&lt;/div&gt;" style="text;html=1;align=left;verticalAlign=middle;resizable=0;points=[];autosize=1;strokeColor=none;fillColor=none;" parent="1" vertex="1">
                    <mxGeometry x="10" y="623" width="190" height="60" as="geometry"/>
                </mxCell>
                <mxCell id="pJ7Jd_JKT5q2OkYUwG2T-19" value="&lt;div&gt;Key-1 is - 1 0 1 0 0 1 0 0&lt;/div&gt;&lt;div&gt;Key-2 is - 0 1 0 0 0 0 1 1&lt;/div&gt;" style="text;html=1;align=left;verticalAlign=middle;resizable=0;points=[];autosize=1;strokeColor=none;fillColor=none;" parent="1" vertex="1">
                    <mxGeometry x="-170" y="260" width="150" height="40" as="geometry"/>
                </mxCell>
                <mxCell id="pJ7Jd_JKT5q2OkYUwG2T-20" value="Initial Permutation（初期置換）" style="rounded=0;whiteSpace=wrap;html=1;" parent="1" vertex="1">
                    <mxGeometry x="-1210" y="590" width="120" height="60" as="geometry"/>
                </mxCell>
                <mxCell id="pJ7Jd_JKT5q2OkYUwG2T-22" style="edgeStyle=orthogonalEdgeStyle;rounded=0;orthogonalLoop=1;jettySize=auto;html=1;entryX=0.5;entryY=0;entryDx=0;entryDy=0;" parent="1" source="pJ7Jd_JKT5q2OkYUwG2T-21" target="pJ7Jd_JKT5q2OkYUwG2T-20" edge="1">
                    <mxGeometry relative="1" as="geometry"/>
                </mxCell>
                <mxCell id="pJ7Jd_JKT5q2OkYUwG2T-21" value="入力(8bit)" style="text;html=1;align=center;verticalAlign=middle;resizable=0;points=[];autosize=1;strokeColor=#d79b00;fillColor=#ffe6cc;" parent="1" vertex="1">
                    <mxGeometry x="-1185" y="520" width="70" height="30" as="geometry"/>
                </mxCell>
                <mxCell id="pJ7Jd_JKT5q2OkYUwG2T-33" style="edgeStyle=orthogonalEdgeStyle;rounded=0;orthogonalLoop=1;jettySize=auto;html=1;entryX=0.5;entryY=0;entryDx=0;entryDy=0;" parent="1" source="pJ7Jd_JKT5q2OkYUwG2T-23" target="pJ7Jd_JKT5q2OkYUwG2T-32" edge="1">
                    <mxGeometry relative="1" as="geometry"/>
                </mxCell>
                <mxCell id="pJ7Jd_JKT5q2OkYUwG2T-23" value="8bit" style="text;html=1;align=center;verticalAlign=middle;resizable=0;points=[];autosize=1;strokeColor=#d79b00;fillColor=#ffe6cc;" parent="1" vertex="1">
                    <mxGeometry x="-1170" y="685" width="40" height="30" as="geometry"/>
                </mxCell>
                <mxCell id="pJ7Jd_JKT5q2OkYUwG2T-26" style="edgeStyle=orthogonalEdgeStyle;rounded=0;orthogonalLoop=1;jettySize=auto;html=1;exitX=0.5;exitY=1;exitDx=0;exitDy=0;entryX=0.5;entryY=0;entryDx=0;entryDy=0;entryPerimeter=0;" parent="1" source="pJ7Jd_JKT5q2OkYUwG2T-20" target="pJ7Jd_JKT5q2OkYUwG2T-23" edge="1">
                    <mxGeometry relative="1" as="geometry"/>
                </mxCell>
                <mxCell id="pJ7Jd_JKT5q2OkYUwG2T-27" value="1. Initial Permutation（初期置換）&lt;div&gt;&lt;br&gt;&lt;/div&gt;" style="rounded=0;whiteSpace=wrap;html=1;" parent="1" vertex="1">
                    <mxGeometry x="-190" y="370" width="120" height="60" as="geometry"/>
                </mxCell>
                <mxCell id="pJ7Jd_JKT5q2OkYUwG2T-28" value="Complex function (fk)" style="swimlane;startSize=30;fillColor=#dae8fc;strokeColor=#6c8ebf;" parent="1" vertex="1">
                    <mxGeometry x="-930" y="520" width="370" height="1120" as="geometry">
                        <mxRectangle x="-970" y="520" width="170" height="30" as="alternateBounds"/>
                    </mxGeometry>
                </mxCell>
                <mxCell id="pJ7Jd_JKT5q2OkYUwG2T-31" value="&lt;div&gt;Expanded Permutation (EP)&lt;br&gt;&lt;/div&gt;" style="rounded=0;whiteSpace=wrap;html=1;" parent="pJ7Jd_JKT5q2OkYUwG2T-28" vertex="1">
                    <mxGeometry x="160" y="195" width="120" height="55" as="geometry"/>
                </mxCell>
                <mxCell id="pJ7Jd_JKT5q2OkYUwG2T-61" style="edgeStyle=orthogonalEdgeStyle;rounded=0;orthogonalLoop=1;jettySize=auto;html=1;entryX=0.5;entryY=0;entryDx=0;entryDy=0;" parent="pJ7Jd_JKT5q2OkYUwG2T-28" source="pJ7Jd_JKT5q2OkYUwG2T-53" target="pJ7Jd_JKT5q2OkYUwG2T-55" edge="1">
                    <mxGeometry relative="1" as="geometry"/>
                </mxCell>
                <mxCell id="pJ7Jd_JKT5q2OkYUwG2T-53" value="8bit" style="text;html=1;align=center;verticalAlign=middle;resizable=0;points=[];autosize=1;strokeColor=#d79b00;fillColor=#ffe6cc;" parent="pJ7Jd_JKT5q2OkYUwG2T-28" vertex="1">
                    <mxGeometry x="130" y="45" width="40" height="30" as="geometry"/>
                </mxCell>
                <mxCell id="pJ7Jd_JKT5q2OkYUwG2T-52" value="" style="endArrow=classic;html=1;rounded=0;entryX=0.477;entryY=-0.038;entryDx=0;entryDy=0;entryPerimeter=0;" parent="pJ7Jd_JKT5q2OkYUwG2T-28" target="pJ7Jd_JKT5q2OkYUwG2T-53" edge="1">
                    <mxGeometry width="50" height="50" relative="1" as="geometry">
                        <mxPoint x="149" y="30" as="sourcePoint"/>
                        <mxPoint x="90" y="-60" as="targetPoint"/>
                    </mxGeometry>
                </mxCell>
                <mxCell id="pJ7Jd_JKT5q2OkYUwG2T-128" style="edgeStyle=orthogonalEdgeStyle;rounded=0;orthogonalLoop=1;jettySize=auto;html=1;entryX=0;entryY=0.5;entryDx=0;entryDy=0;" parent="pJ7Jd_JKT5q2OkYUwG2T-28" source="pJ7Jd_JKT5q2OkYUwG2T-54" target="pJ7Jd_JKT5q2OkYUwG2T-126" edge="1">
                    <mxGeometry relative="1" as="geometry">
                        <Array as="points">
                            <mxPoint x="80" y="893"/>
                        </Array>
                    </mxGeometry>
                </mxCell>
                <mxCell id="pJ7Jd_JKT5q2OkYUwG2T-54" value="4bit" style="text;html=1;align=center;verticalAlign=middle;resizable=0;points=[];autosize=1;strokeColor=#d79b00;fillColor=#ffe6cc;" parent="pJ7Jd_JKT5q2OkYUwG2T-28" vertex="1">
                    <mxGeometry x="60" y="135" width="40" height="30" as="geometry"/>
                </mxCell>
                <mxCell id="pJ7Jd_JKT5q2OkYUwG2T-55" value="&lt;div&gt;split&lt;br&gt;&lt;/div&gt;" style="rounded=0;whiteSpace=wrap;html=1;" parent="pJ7Jd_JKT5q2OkYUwG2T-28" vertex="1">
                    <mxGeometry x="110" y="95" width="80" height="25" as="geometry"/>
                </mxCell>
                <mxCell id="pJ7Jd_JKT5q2OkYUwG2T-63" style="edgeStyle=orthogonalEdgeStyle;rounded=0;orthogonalLoop=1;jettySize=auto;html=1;entryX=0.5;entryY=0;entryDx=0;entryDy=0;" parent="pJ7Jd_JKT5q2OkYUwG2T-28" source="pJ7Jd_JKT5q2OkYUwG2T-57" target="pJ7Jd_JKT5q2OkYUwG2T-31" edge="1">
                    <mxGeometry relative="1" as="geometry"/>
                </mxCell>
                <mxCell id="pJ7Jd_JKT5q2OkYUwG2T-135" style="edgeStyle=orthogonalEdgeStyle;rounded=0;orthogonalLoop=1;jettySize=auto;html=1;entryX=0.75;entryY=0;entryDx=0;entryDy=0;jumpStyle=sharp;" parent="pJ7Jd_JKT5q2OkYUwG2T-28" source="pJ7Jd_JKT5q2OkYUwG2T-57" target="pJ7Jd_JKT5q2OkYUwG2T-132" edge="1">
                    <mxGeometry relative="1" as="geometry">
                        <Array as="points">
                            <mxPoint x="340" y="150"/>
                            <mxPoint x="340" y="950"/>
                            <mxPoint x="316" y="950"/>
                        </Array>
                    </mxGeometry>
                </mxCell>
                <mxCell id="pJ7Jd_JKT5q2OkYUwG2T-57" value="4bit" style="text;html=1;align=center;verticalAlign=middle;resizable=0;points=[];autosize=1;strokeColor=#d79b00;fillColor=#ffe6cc;" parent="pJ7Jd_JKT5q2OkYUwG2T-28" vertex="1">
                    <mxGeometry x="200" y="135" width="40" height="30" as="geometry"/>
                </mxCell>
                <mxCell id="pJ7Jd_JKT5q2OkYUwG2T-59" style="edgeStyle=orthogonalEdgeStyle;rounded=0;orthogonalLoop=1;jettySize=auto;html=1;exitX=0;exitY=0.5;exitDx=0;exitDy=0;entryX=0.483;entryY=0.011;entryDx=0;entryDy=0;entryPerimeter=0;" parent="pJ7Jd_JKT5q2OkYUwG2T-28" source="pJ7Jd_JKT5q2OkYUwG2T-55" target="pJ7Jd_JKT5q2OkYUwG2T-54" edge="1">
                    <mxGeometry relative="1" as="geometry"/>
                </mxCell>
                <mxCell id="pJ7Jd_JKT5q2OkYUwG2T-60" style="edgeStyle=orthogonalEdgeStyle;rounded=0;orthogonalLoop=1;jettySize=auto;html=1;exitX=1;exitY=0.5;exitDx=0;exitDy=0;entryX=0.492;entryY=0.122;entryDx=0;entryDy=0;entryPerimeter=0;" parent="pJ7Jd_JKT5q2OkYUwG2T-28" source="pJ7Jd_JKT5q2OkYUwG2T-55" target="pJ7Jd_JKT5q2OkYUwG2T-57" edge="1">
                    <mxGeometry relative="1" as="geometry"/>
                </mxCell>
                <mxCell id="pJ7Jd_JKT5q2OkYUwG2T-72" style="edgeStyle=orthogonalEdgeStyle;rounded=0;orthogonalLoop=1;jettySize=auto;html=1;entryX=1;entryY=0.5;entryDx=0;entryDy=0;exitX=0.532;exitY=1.023;exitDx=0;exitDy=0;exitPerimeter=0;" parent="pJ7Jd_JKT5q2OkYUwG2T-28" source="pJ7Jd_JKT5q2OkYUwG2T-64" target="pJ7Jd_JKT5q2OkYUwG2T-70" edge="1">
                    <mxGeometry relative="1" as="geometry"/>
                </mxCell>
                <mxCell id="pJ7Jd_JKT5q2OkYUwG2T-64" value="Key(8bit)" style="text;html=1;align=center;verticalAlign=middle;resizable=0;points=[];autosize=1;strokeColor=#d79b00;fillColor=#ffe6cc;" parent="pJ7Jd_JKT5q2OkYUwG2T-28" vertex="1">
                    <mxGeometry x="270" y="45" width="70" height="30" as="geometry"/>
                </mxCell>
                <mxCell id="pJ7Jd_JKT5q2OkYUwG2T-71" style="edgeStyle=orthogonalEdgeStyle;rounded=0;orthogonalLoop=1;jettySize=auto;html=1;entryX=0.5;entryY=0;entryDx=0;entryDy=0;" parent="pJ7Jd_JKT5q2OkYUwG2T-28" source="pJ7Jd_JKT5q2OkYUwG2T-67" target="pJ7Jd_JKT5q2OkYUwG2T-70" edge="1">
                    <mxGeometry relative="1" as="geometry"/>
                </mxCell>
                <mxCell id="pJ7Jd_JKT5q2OkYUwG2T-67" value="8bit" style="text;html=1;align=center;verticalAlign=middle;resizable=0;points=[];autosize=1;strokeColor=#d79b00;fillColor=#ffe6cc;" parent="pJ7Jd_JKT5q2OkYUwG2T-28" vertex="1">
                    <mxGeometry x="200" y="275" width="40" height="30" as="geometry"/>
                </mxCell>
                <mxCell id="pJ7Jd_JKT5q2OkYUwG2T-68" style="edgeStyle=orthogonalEdgeStyle;rounded=0;orthogonalLoop=1;jettySize=auto;html=1;exitX=0.5;exitY=1;exitDx=0;exitDy=0;entryX=0.486;entryY=0.004;entryDx=0;entryDy=0;entryPerimeter=0;" parent="pJ7Jd_JKT5q2OkYUwG2T-28" source="pJ7Jd_JKT5q2OkYUwG2T-31" target="pJ7Jd_JKT5q2OkYUwG2T-67" edge="1">
                    <mxGeometry relative="1" as="geometry"/>
                </mxCell>
                <mxCell id="pJ7Jd_JKT5q2OkYUwG2T-70" value="&lt;div&gt;XOR&lt;br&gt;&lt;/div&gt;" style="rounded=0;whiteSpace=wrap;html=1;" parent="pJ7Jd_JKT5q2OkYUwG2T-28" vertex="1">
                    <mxGeometry x="200" y="325" width="40" height="25" as="geometry"/>
                </mxCell>
                <mxCell id="pJ7Jd_JKT5q2OkYUwG2T-76" style="edgeStyle=orthogonalEdgeStyle;rounded=0;orthogonalLoop=1;jettySize=auto;html=1;entryX=0.5;entryY=0;entryDx=0;entryDy=0;" parent="pJ7Jd_JKT5q2OkYUwG2T-28" source="pJ7Jd_JKT5q2OkYUwG2T-73" target="pJ7Jd_JKT5q2OkYUwG2T-75" edge="1">
                    <mxGeometry relative="1" as="geometry"/>
                </mxCell>
                <mxCell id="pJ7Jd_JKT5q2OkYUwG2T-73" value="8bit" style="text;html=1;align=center;verticalAlign=middle;resizable=0;points=[];autosize=1;strokeColor=#d79b00;fillColor=#ffe6cc;" parent="pJ7Jd_JKT5q2OkYUwG2T-28" vertex="1">
                    <mxGeometry x="201" y="375" width="40" height="30" as="geometry"/>
                </mxCell>
                <mxCell id="pJ7Jd_JKT5q2OkYUwG2T-74" style="edgeStyle=orthogonalEdgeStyle;rounded=0;orthogonalLoop=1;jettySize=auto;html=1;entryX=0.471;entryY=0.001;entryDx=0;entryDy=0;entryPerimeter=0;" parent="pJ7Jd_JKT5q2OkYUwG2T-28" source="pJ7Jd_JKT5q2OkYUwG2T-70" target="pJ7Jd_JKT5q2OkYUwG2T-73" edge="1">
                    <mxGeometry relative="1" as="geometry"/>
                </mxCell>
                <mxCell id="pJ7Jd_JKT5q2OkYUwG2T-75" value="&lt;div&gt;split&lt;br&gt;&lt;/div&gt;" style="rounded=0;whiteSpace=wrap;html=1;" parent="pJ7Jd_JKT5q2OkYUwG2T-28" vertex="1">
                    <mxGeometry x="181" y="430" width="80" height="25" as="geometry"/>
                </mxCell>
                <mxCell id="pJ7Jd_JKT5q2OkYUwG2T-112" style="edgeStyle=orthogonalEdgeStyle;rounded=0;orthogonalLoop=1;jettySize=auto;html=1;entryX=0.5;entryY=0;entryDx=0;entryDy=0;" parent="pJ7Jd_JKT5q2OkYUwG2T-28" source="pJ7Jd_JKT5q2OkYUwG2T-77" target="pJ7Jd_JKT5q2OkYUwG2T-107" edge="1">
                    <mxGeometry relative="1" as="geometry"/>
                </mxCell>
                <mxCell id="pJ7Jd_JKT5q2OkYUwG2T-77" value="4bit" style="text;html=1;align=center;verticalAlign=middle;resizable=0;points=[];autosize=1;strokeColor=#d79b00;fillColor=#ffe6cc;" parent="pJ7Jd_JKT5q2OkYUwG2T-28" vertex="1">
                    <mxGeometry x="130" y="465" width="40" height="30" as="geometry"/>
                </mxCell>
                <mxCell id="pJ7Jd_JKT5q2OkYUwG2T-114" style="edgeStyle=orthogonalEdgeStyle;rounded=0;orthogonalLoop=1;jettySize=auto;html=1;entryX=0.5;entryY=0;entryDx=0;entryDy=0;" parent="pJ7Jd_JKT5q2OkYUwG2T-28" source="pJ7Jd_JKT5q2OkYUwG2T-78" target="pJ7Jd_JKT5q2OkYUwG2T-108" edge="1">
                    <mxGeometry relative="1" as="geometry"/>
                </mxCell>
                <mxCell id="pJ7Jd_JKT5q2OkYUwG2T-78" value="4bit" style="text;html=1;align=center;verticalAlign=middle;resizable=0;points=[];autosize=1;strokeColor=#d79b00;fillColor=#ffe6cc;" parent="pJ7Jd_JKT5q2OkYUwG2T-28" vertex="1">
                    <mxGeometry x="270" y="465" width="40" height="30" as="geometry"/>
                </mxCell>
                <mxCell id="pJ7Jd_JKT5q2OkYUwG2T-79" style="edgeStyle=orthogonalEdgeStyle;rounded=0;orthogonalLoop=1;jettySize=auto;html=1;entryX=0.478;entryY=0.033;entryDx=0;entryDy=0;entryPerimeter=0;" parent="pJ7Jd_JKT5q2OkYUwG2T-28" source="pJ7Jd_JKT5q2OkYUwG2T-75" target="pJ7Jd_JKT5q2OkYUwG2T-77" edge="1">
                    <mxGeometry relative="1" as="geometry"/>
                </mxCell>
                <mxCell id="pJ7Jd_JKT5q2OkYUwG2T-80" style="edgeStyle=orthogonalEdgeStyle;rounded=0;orthogonalLoop=1;jettySize=auto;html=1;entryX=0.511;entryY=0.019;entryDx=0;entryDy=0;entryPerimeter=0;" parent="pJ7Jd_JKT5q2OkYUwG2T-28" source="pJ7Jd_JKT5q2OkYUwG2T-75" target="pJ7Jd_JKT5q2OkYUwG2T-78" edge="1">
                    <mxGeometry relative="1" as="geometry"/>
                </mxCell>
                <mxCell id="pJ7Jd_JKT5q2OkYUwG2T-107" value="&lt;div&gt;&lt;div&gt;S-box(S0)&lt;/div&gt;&lt;/div&gt;" style="rounded=0;whiteSpace=wrap;html=1;" parent="pJ7Jd_JKT5q2OkYUwG2T-28" vertex="1">
                    <mxGeometry x="105" y="520" width="90" height="20" as="geometry"/>
                </mxCell>
                <mxCell id="pJ7Jd_JKT5q2OkYUwG2T-108" value="&lt;div&gt;&lt;div&gt;S-box(S1)&lt;/div&gt;&lt;/div&gt;" style="rounded=0;whiteSpace=wrap;html=1;" parent="pJ7Jd_JKT5q2OkYUwG2T-28" vertex="1">
                    <mxGeometry x="250" y="520" width="80" height="20" as="geometry"/>
                </mxCell>
                <mxCell id="pJ7Jd_JKT5q2OkYUwG2T-119" style="edgeStyle=orthogonalEdgeStyle;rounded=0;orthogonalLoop=1;jettySize=auto;html=1;entryX=0;entryY=0.5;entryDx=0;entryDy=0;" parent="pJ7Jd_JKT5q2OkYUwG2T-28" source="pJ7Jd_JKT5q2OkYUwG2T-110" target="pJ7Jd_JKT5q2OkYUwG2T-118" edge="1">
                    <mxGeometry relative="1" as="geometry"/>
                </mxCell>
                <mxCell id="pJ7Jd_JKT5q2OkYUwG2T-110" value="2bit" style="text;html=1;align=center;verticalAlign=middle;resizable=0;points=[];autosize=1;strokeColor=#d79b00;fillColor=#ffe6cc;" parent="pJ7Jd_JKT5q2OkYUwG2T-28" vertex="1">
                    <mxGeometry x="130" y="560" width="40" height="30" as="geometry"/>
                </mxCell>
                <mxCell id="pJ7Jd_JKT5q2OkYUwG2T-120" style="edgeStyle=orthogonalEdgeStyle;rounded=0;orthogonalLoop=1;jettySize=auto;html=1;entryX=1;entryY=0.5;entryDx=0;entryDy=0;exitX=0.5;exitY=1.022;exitDx=0;exitDy=0;exitPerimeter=0;" parent="pJ7Jd_JKT5q2OkYUwG2T-28" source="pJ7Jd_JKT5q2OkYUwG2T-111" target="pJ7Jd_JKT5q2OkYUwG2T-118" edge="1">
                    <mxGeometry relative="1" as="geometry"/>
                </mxCell>
                <mxCell id="pJ7Jd_JKT5q2OkYUwG2T-111" value="2bit" style="text;html=1;align=center;verticalAlign=middle;resizable=0;points=[];autosize=1;strokeColor=#d79b00;fillColor=#ffe6cc;" parent="pJ7Jd_JKT5q2OkYUwG2T-28" vertex="1">
                    <mxGeometry x="270" y="560" width="40" height="30" as="geometry"/>
                </mxCell>
                <mxCell id="pJ7Jd_JKT5q2OkYUwG2T-113" style="edgeStyle=orthogonalEdgeStyle;rounded=0;orthogonalLoop=1;jettySize=auto;html=1;entryX=0.505;entryY=0.021;entryDx=0;entryDy=0;entryPerimeter=0;" parent="pJ7Jd_JKT5q2OkYUwG2T-28" source="pJ7Jd_JKT5q2OkYUwG2T-107" target="pJ7Jd_JKT5q2OkYUwG2T-110" edge="1">
                    <mxGeometry relative="1" as="geometry"/>
                </mxCell>
                <mxCell id="pJ7Jd_JKT5q2OkYUwG2T-116" style="edgeStyle=orthogonalEdgeStyle;rounded=0;orthogonalLoop=1;jettySize=auto;html=1;entryX=0.5;entryY=0;entryDx=0;entryDy=0;entryPerimeter=0;" parent="pJ7Jd_JKT5q2OkYUwG2T-28" source="pJ7Jd_JKT5q2OkYUwG2T-108" target="pJ7Jd_JKT5q2OkYUwG2T-111" edge="1">
                    <mxGeometry relative="1" as="geometry"/>
                </mxCell>
                <mxCell id="pJ7Jd_JKT5q2OkYUwG2T-123" style="edgeStyle=orthogonalEdgeStyle;rounded=0;orthogonalLoop=1;jettySize=auto;html=1;entryX=0.5;entryY=0;entryDx=0;entryDy=0;" parent="pJ7Jd_JKT5q2OkYUwG2T-28" source="pJ7Jd_JKT5q2OkYUwG2T-117" target="pJ7Jd_JKT5q2OkYUwG2T-122" edge="1">
                    <mxGeometry relative="1" as="geometry"/>
                </mxCell>
                <mxCell id="pJ7Jd_JKT5q2OkYUwG2T-117" value="4bit" style="text;html=1;align=center;verticalAlign=middle;resizable=0;points=[];autosize=1;strokeColor=#d79b00;fillColor=#ffe6cc;" parent="pJ7Jd_JKT5q2OkYUwG2T-28" vertex="1">
                    <mxGeometry x="196" y="660" width="40" height="30" as="geometry"/>
                </mxCell>
                <mxCell id="pJ7Jd_JKT5q2OkYUwG2T-118" value="&lt;div&gt;&lt;div&gt;combine&lt;/div&gt;&lt;/div&gt;" style="rounded=0;whiteSpace=wrap;html=1;" parent="pJ7Jd_JKT5q2OkYUwG2T-28" vertex="1">
                    <mxGeometry x="170" y="610" width="90" height="20" as="geometry"/>
                </mxCell>
                <mxCell id="pJ7Jd_JKT5q2OkYUwG2T-121" style="edgeStyle=orthogonalEdgeStyle;rounded=0;orthogonalLoop=1;jettySize=auto;html=1;entryX=0.475;entryY=-0.056;entryDx=0;entryDy=0;entryPerimeter=0;" parent="pJ7Jd_JKT5q2OkYUwG2T-28" source="pJ7Jd_JKT5q2OkYUwG2T-118" target="pJ7Jd_JKT5q2OkYUwG2T-117" edge="1">
                    <mxGeometry relative="1" as="geometry"/>
                </mxCell>
                <mxCell id="pJ7Jd_JKT5q2OkYUwG2T-122" value="&lt;div&gt;Permutation P4&lt;/div&gt;" style="rounded=0;whiteSpace=wrap;html=1;" parent="pJ7Jd_JKT5q2OkYUwG2T-28" vertex="1">
                    <mxGeometry x="156" y="730" width="120" height="60" as="geometry"/>
                </mxCell>
                <mxCell id="pJ7Jd_JKT5q2OkYUwG2T-127" style="edgeStyle=orthogonalEdgeStyle;rounded=0;orthogonalLoop=1;jettySize=auto;html=1;entryX=0.5;entryY=0;entryDx=0;entryDy=0;" parent="pJ7Jd_JKT5q2OkYUwG2T-28" source="pJ7Jd_JKT5q2OkYUwG2T-124" target="pJ7Jd_JKT5q2OkYUwG2T-126" edge="1">
                    <mxGeometry relative="1" as="geometry"/>
                </mxCell>
                <mxCell id="pJ7Jd_JKT5q2OkYUwG2T-124" value="4bit" style="text;html=1;align=center;verticalAlign=middle;resizable=0;points=[];autosize=1;strokeColor=#d79b00;fillColor=#ffe6cc;" parent="pJ7Jd_JKT5q2OkYUwG2T-28" vertex="1">
                    <mxGeometry x="197" y="820" width="40" height="30" as="geometry"/>
                </mxCell>
                <mxCell id="pJ7Jd_JKT5q2OkYUwG2T-125" style="edgeStyle=orthogonalEdgeStyle;rounded=0;orthogonalLoop=1;jettySize=auto;html=1;exitX=0.5;exitY=1;exitDx=0;exitDy=0;entryX=0.48;entryY=-0.005;entryDx=0;entryDy=0;entryPerimeter=0;" parent="pJ7Jd_JKT5q2OkYUwG2T-28" source="pJ7Jd_JKT5q2OkYUwG2T-122" target="pJ7Jd_JKT5q2OkYUwG2T-124" edge="1">
                    <mxGeometry relative="1" as="geometry"/>
                </mxCell>
                <mxCell id="pJ7Jd_JKT5q2OkYUwG2T-126" value="&lt;div&gt;XOR&lt;br&gt;&lt;/div&gt;" style="rounded=0;whiteSpace=wrap;html=1;" parent="pJ7Jd_JKT5q2OkYUwG2T-28" vertex="1">
                    <mxGeometry x="197" y="880" width="40" height="25" as="geometry"/>
                </mxCell>
                <mxCell id="pJ7Jd_JKT5q2OkYUwG2T-134" style="edgeStyle=orthogonalEdgeStyle;rounded=0;orthogonalLoop=1;jettySize=auto;html=1;entryX=0.25;entryY=0;entryDx=0;entryDy=0;" parent="pJ7Jd_JKT5q2OkYUwG2T-28" source="pJ7Jd_JKT5q2OkYUwG2T-129" target="pJ7Jd_JKT5q2OkYUwG2T-132" edge="1">
                    <mxGeometry relative="1" as="geometry"/>
                </mxCell>
                <mxCell id="pJ7Jd_JKT5q2OkYUwG2T-129" value="4bit" style="text;html=1;align=center;verticalAlign=middle;resizable=0;points=[];autosize=1;strokeColor=#d79b00;fillColor=#ffe6cc;" parent="pJ7Jd_JKT5q2OkYUwG2T-28" vertex="1">
                    <mxGeometry x="197" y="930" width="40" height="30" as="geometry"/>
                </mxCell>
                <mxCell id="pJ7Jd_JKT5q2OkYUwG2T-130" style="edgeStyle=orthogonalEdgeStyle;rounded=0;orthogonalLoop=1;jettySize=auto;html=1;exitX=0.5;exitY=1;exitDx=0;exitDy=0;entryX=0.506;entryY=-0.085;entryDx=0;entryDy=0;entryPerimeter=0;" parent="pJ7Jd_JKT5q2OkYUwG2T-28" source="pJ7Jd_JKT5q2OkYUwG2T-126" target="pJ7Jd_JKT5q2OkYUwG2T-129" edge="1">
                    <mxGeometry relative="1" as="geometry"/>
                </mxCell>
                <mxCell id="pJ7Jd_JKT5q2OkYUwG2T-132" value="&lt;div&gt;&lt;div&gt;combine&lt;/div&gt;&lt;/div&gt;" style="rounded=0;whiteSpace=wrap;html=1;" parent="pJ7Jd_JKT5q2OkYUwG2T-28" vertex="1">
                    <mxGeometry x="260" y="970" width="75" height="20" as="geometry"/>
                </mxCell>
                <mxCell id="pJ7Jd_JKT5q2OkYUwG2T-139" style="edgeStyle=orthogonalEdgeStyle;rounded=0;orthogonalLoop=1;jettySize=auto;html=1;" parent="pJ7Jd_JKT5q2OkYUwG2T-28" source="pJ7Jd_JKT5q2OkYUwG2T-136" edge="1">
                    <mxGeometry relative="1" as="geometry">
                        <mxPoint x="299.5" y="1120" as="targetPoint"/>
                    </mxGeometry>
                </mxCell>
                <mxCell id="pJ7Jd_JKT5q2OkYUwG2T-136" value="8bit" style="text;html=1;align=center;verticalAlign=middle;resizable=0;points=[];autosize=1;strokeColor=#d79b00;fillColor=#ffe6cc;" parent="pJ7Jd_JKT5q2OkYUwG2T-28" vertex="1">
                    <mxGeometry x="279.5" y="1040" width="40" height="30" as="geometry"/>
                </mxCell>
                <mxCell id="pJ7Jd_JKT5q2OkYUwG2T-137" style="edgeStyle=orthogonalEdgeStyle;rounded=0;orthogonalLoop=1;jettySize=auto;html=1;exitX=0.5;exitY=1;exitDx=0;exitDy=0;entryX=0.459;entryY=-0.051;entryDx=0;entryDy=0;entryPerimeter=0;" parent="pJ7Jd_JKT5q2OkYUwG2T-28" source="pJ7Jd_JKT5q2OkYUwG2T-132" target="pJ7Jd_JKT5q2OkYUwG2T-136" edge="1">
                    <mxGeometry relative="1" as="geometry"/>
                </mxCell>
                <mxCell id="pJ7Jd_JKT5q2OkYUwG2T-140" value="&lt;div&gt;0b11110000&lt;/div&gt;&lt;div&gt;↓&lt;/div&gt;&lt;div&gt;&lt;font color=&quot;#ff0000&quot;&gt;0b1111 &lt;/font&gt;&lt;font color=&quot;#0000ff&quot;&gt;0b&lt;span style=&quot;background-color: initial;&quot;&gt;0000&lt;/span&gt;&lt;/font&gt;&lt;/div&gt;" style="text;html=1;align=center;verticalAlign=middle;resizable=0;points=[];autosize=1;strokeColor=none;fillColor=none;" parent="pJ7Jd_JKT5q2OkYUwG2T-28" vertex="1">
                    <mxGeometry x="99" y="114" width="100" height="60" as="geometry"/>
                </mxCell>
                <mxCell id="pJ7Jd_JKT5q2OkYUwG2T-141" value="&lt;div&gt;&lt;font style=&quot;background-color: initial;&quot; color=&quot;#ff0000&quot;&gt;0b1111 &lt;/font&gt;&lt;font style=&quot;background-color: initial;&quot; color=&quot;#0000ff&quot;&gt;0b&lt;span style=&quot;background-color: initial;&quot;&gt;0000&lt;/span&gt;&lt;/font&gt;&lt;/div&gt;&lt;div&gt;&lt;div&gt;↓&lt;/div&gt;&lt;/div&gt;&lt;div&gt;0b11110000&lt;br&gt;&lt;/div&gt;" style="text;html=1;align=center;verticalAlign=middle;resizable=0;points=[];autosize=1;strokeColor=none;fillColor=none;" parent="pJ7Jd_JKT5q2OkYUwG2T-28" vertex="1">
                    <mxGeometry x="168" y="560" width="100" height="60" as="geometry"/>
                </mxCell>
                <mxCell id="pJ7Jd_JKT5q2OkYUwG2T-32" value="&lt;div&gt;Complex function&lt;/div&gt;&lt;div&gt;(fk)&lt;br&gt;&lt;/div&gt;" style="rounded=0;whiteSpace=wrap;html=1;" parent="1" vertex="1">
                    <mxGeometry x="-1210" y="760" width="120" height="60" as="geometry"/>
                </mxCell>
                <mxCell id="pJ7Jd_JKT5q2OkYUwG2T-40" style="edgeStyle=orthogonalEdgeStyle;rounded=0;orthogonalLoop=1;jettySize=auto;html=1;entryX=0.5;entryY=0;entryDx=0;entryDy=0;" parent="1" source="pJ7Jd_JKT5q2OkYUwG2T-34" target="pJ7Jd_JKT5q2OkYUwG2T-39" edge="1">
                    <mxGeometry relative="1" as="geometry"/>
                </mxCell>
                <mxCell id="pJ7Jd_JKT5q2OkYUwG2T-34" value="8bit" style="text;html=1;align=center;verticalAlign=middle;resizable=0;points=[];autosize=1;strokeColor=#d79b00;fillColor=#ffe6cc;" parent="1" vertex="1">
                    <mxGeometry x="-1170" y="860" width="40" height="30" as="geometry"/>
                </mxCell>
                <mxCell id="pJ7Jd_JKT5q2OkYUwG2T-43" style="edgeStyle=orthogonalEdgeStyle;rounded=0;orthogonalLoop=1;jettySize=auto;html=1;entryX=0.5;entryY=0;entryDx=0;entryDy=0;" parent="1" source="pJ7Jd_JKT5q2OkYUwG2T-36" target="pJ7Jd_JKT5q2OkYUwG2T-41" edge="1">
                    <mxGeometry relative="1" as="geometry"/>
                </mxCell>
                <mxCell id="pJ7Jd_JKT5q2OkYUwG2T-36" value="8bit" style="text;html=1;align=center;verticalAlign=middle;resizable=0;points=[];autosize=1;strokeColor=#d79b00;fillColor=#ffe6cc;" parent="1" vertex="1">
                    <mxGeometry x="-1170" y="1020" width="40" height="30" as="geometry"/>
                </mxCell>
                <mxCell id="pJ7Jd_JKT5q2OkYUwG2T-38" style="edgeStyle=orthogonalEdgeStyle;rounded=0;orthogonalLoop=1;jettySize=auto;html=1;exitX=0.5;exitY=1;exitDx=0;exitDy=0;entryX=0.504;entryY=-0.031;entryDx=0;entryDy=0;entryPerimeter=0;" parent="1" source="pJ7Jd_JKT5q2OkYUwG2T-32" target="pJ7Jd_JKT5q2OkYUwG2T-34" edge="1">
                    <mxGeometry relative="1" as="geometry"/>
                </mxCell>
                <mxCell id="pJ7Jd_JKT5q2OkYUwG2T-39" value="&lt;span style=&quot;text-wrap: nowrap;&quot;&gt;Swap&lt;/span&gt;" style="rounded=0;whiteSpace=wrap;html=1;" parent="1" vertex="1">
                    <mxGeometry x="-1210" y="920" width="120" height="60" as="geometry"/>
                </mxCell>
                <mxCell id="pJ7Jd_JKT5q2OkYUwG2T-41" value="&lt;div&gt;Complex function&lt;/div&gt;&lt;div&gt;(fk)&lt;br&gt;&lt;/div&gt;" style="rounded=0;whiteSpace=wrap;html=1;" parent="1" vertex="1">
                    <mxGeometry x="-1210" y="1080" width="120" height="60" as="geometry"/>
                </mxCell>
                <mxCell id="pJ7Jd_JKT5q2OkYUwG2T-42" style="edgeStyle=orthogonalEdgeStyle;rounded=0;orthogonalLoop=1;jettySize=auto;html=1;exitX=0.5;exitY=1;exitDx=0;exitDy=0;entryX=0.508;entryY=0.038;entryDx=0;entryDy=0;entryPerimeter=0;" parent="1" source="pJ7Jd_JKT5q2OkYUwG2T-39" target="pJ7Jd_JKT5q2OkYUwG2T-36" edge="1">
                    <mxGeometry relative="1" as="geometry"/>
                </mxCell>
                <mxCell id="pJ7Jd_JKT5q2OkYUwG2T-44" value="Reverse Initial Permutation" style="rounded=0;whiteSpace=wrap;html=1;" parent="1" vertex="1">
                    <mxGeometry x="-1211" y="1250" width="120" height="60" as="geometry"/>
                </mxCell>
                <mxCell id="pJ7Jd_JKT5q2OkYUwG2T-48" style="edgeStyle=orthogonalEdgeStyle;rounded=0;orthogonalLoop=1;jettySize=auto;html=1;entryX=0.5;entryY=0;entryDx=0;entryDy=0;" parent="1" source="pJ7Jd_JKT5q2OkYUwG2T-46" target="pJ7Jd_JKT5q2OkYUwG2T-44" edge="1">
                    <mxGeometry relative="1" as="geometry"/>
                </mxCell>
                <mxCell id="pJ7Jd_JKT5q2OkYUwG2T-46" value="8bit" style="text;html=1;align=center;verticalAlign=middle;resizable=0;points=[];autosize=1;strokeColor=#d79b00;fillColor=#ffe6cc;" parent="1" vertex="1">
                    <mxGeometry x="-1171" y="1170" width="40" height="30" as="geometry"/>
                </mxCell>
                <mxCell id="pJ7Jd_JKT5q2OkYUwG2T-47" style="edgeStyle=orthogonalEdgeStyle;rounded=0;orthogonalLoop=1;jettySize=auto;html=1;exitX=0.5;exitY=1;exitDx=0;exitDy=0;entryX=0.52;entryY=-0.053;entryDx=0;entryDy=0;entryPerimeter=0;" parent="1" source="pJ7Jd_JKT5q2OkYUwG2T-41" target="pJ7Jd_JKT5q2OkYUwG2T-46" edge="1">
                    <mxGeometry relative="1" as="geometry"/>
                </mxCell>
                <mxCell id="pJ7Jd_JKT5q2OkYUwG2T-49" value="出力(8bit)" style="text;html=1;align=center;verticalAlign=middle;resizable=0;points=[];autosize=1;strokeColor=#d79b00;fillColor=#ffe6cc;" parent="1" vertex="1">
                    <mxGeometry x="-1185" y="1370" width="70" height="30" as="geometry"/>
                </mxCell>
                <mxCell id="pJ7Jd_JKT5q2OkYUwG2T-50" style="edgeStyle=orthogonalEdgeStyle;rounded=0;orthogonalLoop=1;jettySize=auto;html=1;exitX=0.5;exitY=1;exitDx=0;exitDy=0;entryX=0.487;entryY=-0.02;entryDx=0;entryDy=0;entryPerimeter=0;" parent="1" source="pJ7Jd_JKT5q2OkYUwG2T-44" target="pJ7Jd_JKT5q2OkYUwG2T-49" edge="1">
                    <mxGeometry relative="1" as="geometry"/>
                </mxCell>
                <mxCell id="pJ7Jd_JKT5q2OkYUwG2T-51" value="&lt;div&gt;0b&lt;font color=&quot;#0000ff&quot;&gt;0000&lt;/font&gt;&lt;font color=&quot;#ff0000&quot;&gt;1111&lt;/font&gt;&lt;/div&gt;&lt;div&gt;↓&lt;/div&gt;&lt;div&gt;0b&lt;font color=&quot;#ff0000&quot;&gt;1111&lt;/font&gt;&lt;span style=&quot;color: rgb(0, 0, 255); background-color: initial;&quot;&gt;0000&lt;/span&gt;&lt;/div&gt;" style="text;html=1;align=center;verticalAlign=middle;resizable=0;points=[];autosize=1;strokeColor=none;fillColor=none;" parent="1" vertex="1">
                    <mxGeometry x="-1310" y="920" width="90" height="60" as="geometry"/>
                </mxCell>
                <mxCell id="pJ7Jd_JKT5q2OkYUwG2T-65" value="" style="endArrow=classic;html=1;rounded=0;entryX=0.992;entryY=0.462;entryDx=0;entryDy=0;entryPerimeter=0;" parent="1" target="pJ7Jd_JKT5q2OkYUwG2T-64" edge="1">
                    <mxGeometry width="50" height="50" relative="1" as="geometry">
                        <mxPoint x="-560" y="579" as="sourcePoint"/>
                        <mxPoint x="-560" y="576" as="targetPoint"/>
                    </mxGeometry>
                </mxCell>
                <mxCell id="pJ7Jd_JKT5q2OkYUwG2T-144" style="edgeStyle=orthogonalEdgeStyle;rounded=0;orthogonalLoop=1;jettySize=auto;html=1;entryX=1;entryY=0.5;entryDx=0;entryDy=0;" parent="1" source="pJ7Jd_JKT5q2OkYUwG2T-143" target="pJ7Jd_JKT5q2OkYUwG2T-32" edge="1">
                    <mxGeometry relative="1" as="geometry"/>
                </mxCell>
                <mxCell id="pJ7Jd_JKT5q2OkYUwG2T-143" value="Key1(8bit)" style="text;html=1;align=center;verticalAlign=middle;resizable=0;points=[];autosize=1;strokeColor=#d79b00;fillColor=#ffe6cc;" parent="1" vertex="1">
                    <mxGeometry x="-1060" y="775" width="80" height="30" as="geometry"/>
                </mxCell>
                <mxCell id="pJ7Jd_JKT5q2OkYUwG2T-146" style="edgeStyle=orthogonalEdgeStyle;rounded=0;orthogonalLoop=1;jettySize=auto;html=1;entryX=1;entryY=0.5;entryDx=0;entryDy=0;" parent="1" source="pJ7Jd_JKT5q2OkYUwG2T-145" target="pJ7Jd_JKT5q2OkYUwG2T-41" edge="1">
                    <mxGeometry relative="1" as="geometry"/>
                </mxCell>
                <mxCell id="pJ7Jd_JKT5q2OkYUwG2T-145" value="Key2(8bit)" style="text;html=1;align=center;verticalAlign=middle;resizable=0;points=[];autosize=1;strokeColor=#d79b00;fillColor=#ffe6cc;" parent="1" vertex="1">
                    <mxGeometry x="-1060" y="1095" width="80" height="30" as="geometry"/>
                </mxCell>
            </root>
        </mxGraphModel>
    </diagram>
    <diagram id="0G_y05o5k9qgV5TRxmsS" name="ページ2">
        <mxGraphModel dx="4951" dy="3099" grid="1" gridSize="10" guides="1" tooltips="1" connect="1" arrows="1" fold="1" page="1" pageScale="1" pageWidth="827" pageHeight="1169" math="0" shadow="0">
            <root>
                <mxCell id="0"/>
                <mxCell id="1" parent="0"/>
                <mxCell id="JPlbqCN_LtyJlMGq5O9b-1" value="Initial Permutation（IP）" style="rounded=0;whiteSpace=wrap;html=1;" parent="1" vertex="1">
                    <mxGeometry x="-1210" y="590" width="120" height="60" as="geometry"/>
                </mxCell>
                <mxCell id="JPlbqCN_LtyJlMGq5O9b-2" style="edgeStyle=orthogonalEdgeStyle;rounded=0;orthogonalLoop=1;jettySize=auto;html=1;entryX=0.5;entryY=0;entryDx=0;entryDy=0;" parent="1" source="JPlbqCN_LtyJlMGq5O9b-3" target="JPlbqCN_LtyJlMGq5O9b-1" edge="1">
                    <mxGeometry relative="1" as="geometry"/>
                </mxCell>
                <mxCell id="JPlbqCN_LtyJlMGq5O9b-3" value="入力(8bit)" style="text;html=1;align=center;verticalAlign=middle;resizable=0;points=[];autosize=1;strokeColor=#d79b00;fillColor=#ffe6cc;" parent="1" vertex="1">
                    <mxGeometry x="-1185" y="520" width="70" height="30" as="geometry"/>
                </mxCell>
                <mxCell id="JPlbqCN_LtyJlMGq5O9b-4" style="edgeStyle=orthogonalEdgeStyle;rounded=0;orthogonalLoop=1;jettySize=auto;html=1;entryX=0.5;entryY=0;entryDx=0;entryDy=0;" parent="1" source="JPlbqCN_LtyJlMGq5O9b-5" target="JPlbqCN_LtyJlMGq5O9b-62" edge="1">
                    <mxGeometry relative="1" as="geometry"/>
                </mxCell>
                <mxCell id="JPlbqCN_LtyJlMGq5O9b-5" value="8bit" style="text;html=1;align=center;verticalAlign=middle;resizable=0;points=[];autosize=1;strokeColor=#d79b00;fillColor=#ffe6cc;" parent="1" vertex="1">
                    <mxGeometry x="-1170" y="685" width="40" height="30" as="geometry"/>
                </mxCell>
                <mxCell id="JPlbqCN_LtyJlMGq5O9b-6" style="edgeStyle=orthogonalEdgeStyle;rounded=0;orthogonalLoop=1;jettySize=auto;html=1;exitX=0.5;exitY=1;exitDx=0;exitDy=0;entryX=0.5;entryY=0;entryDx=0;entryDy=0;entryPerimeter=0;" parent="1" source="JPlbqCN_LtyJlMGq5O9b-1" target="JPlbqCN_LtyJlMGq5O9b-5" edge="1">
                    <mxGeometry relative="1" as="geometry"/>
                </mxCell>
                <mxCell id="JPlbqCN_LtyJlMGq5O9b-7" value="Feistel関数" style="swimlane;startSize=30;fillColor=#dae8fc;strokeColor=#6c8ebf;fontStyle=1" parent="1" vertex="1">
                    <mxGeometry x="-930" y="520" width="370" height="1120" as="geometry">
                        <mxRectangle x="-970" y="520" width="170" height="30" as="alternateBounds"/>
                    </mxGeometry>
                </mxCell>
                <mxCell id="JPlbqCN_LtyJlMGq5O9b-8" value="&lt;div&gt;Expanded Permutation (EP)&lt;br&gt;&lt;/div&gt;" style="rounded=0;whiteSpace=wrap;html=1;" parent="JPlbqCN_LtyJlMGq5O9b-7" vertex="1">
                    <mxGeometry x="160" y="195" width="120" height="55" as="geometry"/>
                </mxCell>
                <mxCell id="JPlbqCN_LtyJlMGq5O9b-9" style="edgeStyle=orthogonalEdgeStyle;rounded=0;orthogonalLoop=1;jettySize=auto;html=1;entryX=0.5;entryY=0;entryDx=0;entryDy=0;" parent="JPlbqCN_LtyJlMGq5O9b-7" source="JPlbqCN_LtyJlMGq5O9b-10" target="JPlbqCN_LtyJlMGq5O9b-14" edge="1">
                    <mxGeometry relative="1" as="geometry"/>
                </mxCell>
                <mxCell id="JPlbqCN_LtyJlMGq5O9b-10" value="8bit" style="text;html=1;align=center;verticalAlign=middle;resizable=0;points=[];autosize=1;strokeColor=#d79b00;fillColor=#ffe6cc;" parent="JPlbqCN_LtyJlMGq5O9b-7" vertex="1">
                    <mxGeometry x="130" y="45" width="40" height="30" as="geometry"/>
                </mxCell>
                <mxCell id="JPlbqCN_LtyJlMGq5O9b-11" value="" style="endArrow=classic;html=1;rounded=0;entryX=0.477;entryY=-0.038;entryDx=0;entryDy=0;entryPerimeter=0;" parent="JPlbqCN_LtyJlMGq5O9b-7" target="JPlbqCN_LtyJlMGq5O9b-10" edge="1">
                    <mxGeometry width="50" height="50" relative="1" as="geometry">
                        <mxPoint x="149" y="30" as="sourcePoint"/>
                        <mxPoint x="90" y="-60" as="targetPoint"/>
                    </mxGeometry>
                </mxCell>
                <mxCell id="JPlbqCN_LtyJlMGq5O9b-12" style="edgeStyle=orthogonalEdgeStyle;rounded=0;orthogonalLoop=1;jettySize=auto;html=1;entryX=0;entryY=0.5;entryDx=0;entryDy=0;" parent="JPlbqCN_LtyJlMGq5O9b-7" source="JPlbqCN_LtyJlMGq5O9b-13" target="JPlbqCN_LtyJlMGq5O9b-52" edge="1">
                    <mxGeometry relative="1" as="geometry">
                        <Array as="points">
                            <mxPoint x="80" y="893"/>
                        </Array>
                    </mxGeometry>
                </mxCell>
                <mxCell id="JPlbqCN_LtyJlMGq5O9b-13" value="4bit" style="text;html=1;align=center;verticalAlign=middle;resizable=0;points=[];autosize=1;strokeColor=#d79b00;fillColor=#ffe6cc;" parent="JPlbqCN_LtyJlMGq5O9b-7" vertex="1">
                    <mxGeometry x="60" y="135" width="40" height="30" as="geometry"/>
                </mxCell>
                <mxCell id="JPlbqCN_LtyJlMGq5O9b-14" value="&lt;div&gt;split&lt;br&gt;&lt;/div&gt;" style="rounded=0;whiteSpace=wrap;html=1;" parent="JPlbqCN_LtyJlMGq5O9b-7" vertex="1">
                    <mxGeometry x="110" y="95" width="80" height="25" as="geometry"/>
                </mxCell>
                <mxCell id="JPlbqCN_LtyJlMGq5O9b-15" style="edgeStyle=orthogonalEdgeStyle;rounded=0;orthogonalLoop=1;jettySize=auto;html=1;entryX=0.5;entryY=0;entryDx=0;entryDy=0;" parent="JPlbqCN_LtyJlMGq5O9b-7" source="JPlbqCN_LtyJlMGq5O9b-17" target="JPlbqCN_LtyJlMGq5O9b-8" edge="1">
                    <mxGeometry relative="1" as="geometry"/>
                </mxCell>
                <mxCell id="JPlbqCN_LtyJlMGq5O9b-16" style="edgeStyle=orthogonalEdgeStyle;rounded=0;orthogonalLoop=1;jettySize=auto;html=1;entryX=0.75;entryY=0;entryDx=0;entryDy=0;jumpStyle=sharp;" parent="JPlbqCN_LtyJlMGq5O9b-7" source="JPlbqCN_LtyJlMGq5O9b-17" target="JPlbqCN_LtyJlMGq5O9b-56" edge="1">
                    <mxGeometry relative="1" as="geometry">
                        <Array as="points">
                            <mxPoint x="340" y="150"/>
                            <mxPoint x="340" y="950"/>
                            <mxPoint x="316" y="950"/>
                        </Array>
                    </mxGeometry>
                </mxCell>
                <mxCell id="JPlbqCN_LtyJlMGq5O9b-17" value="4bit" style="text;html=1;align=center;verticalAlign=middle;resizable=0;points=[];autosize=1;strokeColor=#d79b00;fillColor=#ffe6cc;" parent="JPlbqCN_LtyJlMGq5O9b-7" vertex="1">
                    <mxGeometry x="200" y="135" width="40" height="30" as="geometry"/>
                </mxCell>
                <mxCell id="JPlbqCN_LtyJlMGq5O9b-18" style="edgeStyle=orthogonalEdgeStyle;rounded=0;orthogonalLoop=1;jettySize=auto;html=1;exitX=0;exitY=0.5;exitDx=0;exitDy=0;entryX=0.483;entryY=0.011;entryDx=0;entryDy=0;entryPerimeter=0;" parent="JPlbqCN_LtyJlMGq5O9b-7" source="JPlbqCN_LtyJlMGq5O9b-14" target="JPlbqCN_LtyJlMGq5O9b-13" edge="1">
                    <mxGeometry relative="1" as="geometry"/>
                </mxCell>
                <mxCell id="JPlbqCN_LtyJlMGq5O9b-19" style="edgeStyle=orthogonalEdgeStyle;rounded=0;orthogonalLoop=1;jettySize=auto;html=1;exitX=1;exitY=0.5;exitDx=0;exitDy=0;entryX=0.492;entryY=0.122;entryDx=0;entryDy=0;entryPerimeter=0;" parent="JPlbqCN_LtyJlMGq5O9b-7" source="JPlbqCN_LtyJlMGq5O9b-14" target="JPlbqCN_LtyJlMGq5O9b-17" edge="1">
                    <mxGeometry relative="1" as="geometry"/>
                </mxCell>
                <mxCell id="JPlbqCN_LtyJlMGq5O9b-20" style="edgeStyle=orthogonalEdgeStyle;rounded=0;orthogonalLoop=1;jettySize=auto;html=1;entryX=1;entryY=0.5;entryDx=0;entryDy=0;exitX=0.532;exitY=1.023;exitDx=0;exitDy=0;exitPerimeter=0;" parent="JPlbqCN_LtyJlMGq5O9b-7" source="JPlbqCN_LtyJlMGq5O9b-21" target="JPlbqCN_LtyJlMGq5O9b-25" edge="1">
                    <mxGeometry relative="1" as="geometry"/>
                </mxCell>
                <mxCell id="JPlbqCN_LtyJlMGq5O9b-21" value="Key(8bit)" style="text;html=1;align=center;verticalAlign=middle;resizable=0;points=[];autosize=1;strokeColor=#d79b00;fillColor=#ffe6cc;" parent="JPlbqCN_LtyJlMGq5O9b-7" vertex="1">
                    <mxGeometry x="270" y="45" width="70" height="30" as="geometry"/>
                </mxCell>
                <mxCell id="JPlbqCN_LtyJlMGq5O9b-22" style="edgeStyle=orthogonalEdgeStyle;rounded=0;orthogonalLoop=1;jettySize=auto;html=1;entryX=0.5;entryY=0;entryDx=0;entryDy=0;" parent="JPlbqCN_LtyJlMGq5O9b-7" source="JPlbqCN_LtyJlMGq5O9b-23" target="JPlbqCN_LtyJlMGq5O9b-25" edge="1">
                    <mxGeometry relative="1" as="geometry"/>
                </mxCell>
                <mxCell id="JPlbqCN_LtyJlMGq5O9b-23" value="8bit" style="text;html=1;align=center;verticalAlign=middle;resizable=0;points=[];autosize=1;strokeColor=#d79b00;fillColor=#ffe6cc;" parent="JPlbqCN_LtyJlMGq5O9b-7" vertex="1">
                    <mxGeometry x="200" y="275" width="40" height="30" as="geometry"/>
                </mxCell>
                <mxCell id="JPlbqCN_LtyJlMGq5O9b-24" style="edgeStyle=orthogonalEdgeStyle;rounded=0;orthogonalLoop=1;jettySize=auto;html=1;exitX=0.5;exitY=1;exitDx=0;exitDy=0;entryX=0.486;entryY=0.004;entryDx=0;entryDy=0;entryPerimeter=0;" parent="JPlbqCN_LtyJlMGq5O9b-7" source="JPlbqCN_LtyJlMGq5O9b-8" target="JPlbqCN_LtyJlMGq5O9b-23" edge="1">
                    <mxGeometry relative="1" as="geometry"/>
                </mxCell>
                <mxCell id="JPlbqCN_LtyJlMGq5O9b-25" value="&lt;div&gt;XOR&lt;br&gt;&lt;/div&gt;" style="rounded=0;whiteSpace=wrap;html=1;" parent="JPlbqCN_LtyJlMGq5O9b-7" vertex="1">
                    <mxGeometry x="200" y="325" width="40" height="25" as="geometry"/>
                </mxCell>
                <mxCell id="JPlbqCN_LtyJlMGq5O9b-26" style="edgeStyle=orthogonalEdgeStyle;rounded=0;orthogonalLoop=1;jettySize=auto;html=1;entryX=0.5;entryY=0;entryDx=0;entryDy=0;" parent="JPlbqCN_LtyJlMGq5O9b-7" source="JPlbqCN_LtyJlMGq5O9b-27" target="JPlbqCN_LtyJlMGq5O9b-29" edge="1">
                    <mxGeometry relative="1" as="geometry"/>
                </mxCell>
                <mxCell id="JPlbqCN_LtyJlMGq5O9b-27" value="8bit" style="text;html=1;align=center;verticalAlign=middle;resizable=0;points=[];autosize=1;strokeColor=#d79b00;fillColor=#ffe6cc;" parent="JPlbqCN_LtyJlMGq5O9b-7" vertex="1">
                    <mxGeometry x="201" y="375" width="40" height="30" as="geometry"/>
                </mxCell>
                <mxCell id="JPlbqCN_LtyJlMGq5O9b-28" style="edgeStyle=orthogonalEdgeStyle;rounded=0;orthogonalLoop=1;jettySize=auto;html=1;entryX=0.471;entryY=0.001;entryDx=0;entryDy=0;entryPerimeter=0;" parent="JPlbqCN_LtyJlMGq5O9b-7" source="JPlbqCN_LtyJlMGq5O9b-25" target="JPlbqCN_LtyJlMGq5O9b-27" edge="1">
                    <mxGeometry relative="1" as="geometry"/>
                </mxCell>
                <mxCell id="JPlbqCN_LtyJlMGq5O9b-29" value="&lt;div&gt;split&lt;br&gt;&lt;/div&gt;" style="rounded=0;whiteSpace=wrap;html=1;" parent="JPlbqCN_LtyJlMGq5O9b-7" vertex="1">
                    <mxGeometry x="181" y="430" width="80" height="25" as="geometry"/>
                </mxCell>
                <mxCell id="JPlbqCN_LtyJlMGq5O9b-30" style="edgeStyle=orthogonalEdgeStyle;rounded=0;orthogonalLoop=1;jettySize=auto;html=1;entryX=0.5;entryY=0;entryDx=0;entryDy=0;" parent="JPlbqCN_LtyJlMGq5O9b-7" source="JPlbqCN_LtyJlMGq5O9b-31" target="JPlbqCN_LtyJlMGq5O9b-36" edge="1">
                    <mxGeometry relative="1" as="geometry"/>
                </mxCell>
                <mxCell id="JPlbqCN_LtyJlMGq5O9b-31" value="4bit" style="text;html=1;align=center;verticalAlign=middle;resizable=0;points=[];autosize=1;strokeColor=#d79b00;fillColor=#ffe6cc;" parent="JPlbqCN_LtyJlMGq5O9b-7" vertex="1">
                    <mxGeometry x="130" y="465" width="40" height="30" as="geometry"/>
                </mxCell>
                <mxCell id="JPlbqCN_LtyJlMGq5O9b-32" style="edgeStyle=orthogonalEdgeStyle;rounded=0;orthogonalLoop=1;jettySize=auto;html=1;entryX=0.5;entryY=0;entryDx=0;entryDy=0;" parent="JPlbqCN_LtyJlMGq5O9b-7" source="JPlbqCN_LtyJlMGq5O9b-33" target="JPlbqCN_LtyJlMGq5O9b-37" edge="1">
                    <mxGeometry relative="1" as="geometry"/>
                </mxCell>
                <mxCell id="JPlbqCN_LtyJlMGq5O9b-33" value="4bit" style="text;html=1;align=center;verticalAlign=middle;resizable=0;points=[];autosize=1;strokeColor=#d79b00;fillColor=#ffe6cc;" parent="JPlbqCN_LtyJlMGq5O9b-7" vertex="1">
                    <mxGeometry x="270" y="465" width="40" height="30" as="geometry"/>
                </mxCell>
                <mxCell id="JPlbqCN_LtyJlMGq5O9b-34" style="edgeStyle=orthogonalEdgeStyle;rounded=0;orthogonalLoop=1;jettySize=auto;html=1;entryX=0.478;entryY=0.033;entryDx=0;entryDy=0;entryPerimeter=0;" parent="JPlbqCN_LtyJlMGq5O9b-7" source="JPlbqCN_LtyJlMGq5O9b-29" target="JPlbqCN_LtyJlMGq5O9b-31" edge="1">
                    <mxGeometry relative="1" as="geometry"/>
                </mxCell>
                <mxCell id="JPlbqCN_LtyJlMGq5O9b-35" style="edgeStyle=orthogonalEdgeStyle;rounded=0;orthogonalLoop=1;jettySize=auto;html=1;entryX=0.511;entryY=0.019;entryDx=0;entryDy=0;entryPerimeter=0;" parent="JPlbqCN_LtyJlMGq5O9b-7" source="JPlbqCN_LtyJlMGq5O9b-29" target="JPlbqCN_LtyJlMGq5O9b-33" edge="1">
                    <mxGeometry relative="1" as="geometry"/>
                </mxCell>
                <mxCell id="JPlbqCN_LtyJlMGq5O9b-36" value="&lt;div&gt;&lt;div&gt;S-box(S0)&lt;/div&gt;&lt;/div&gt;" style="rounded=0;whiteSpace=wrap;html=1;" parent="JPlbqCN_LtyJlMGq5O9b-7" vertex="1">
                    <mxGeometry x="105" y="520" width="90" height="20" as="geometry"/>
                </mxCell>
                <mxCell id="JPlbqCN_LtyJlMGq5O9b-37" value="&lt;div&gt;&lt;div&gt;S-box(S1)&lt;/div&gt;&lt;/div&gt;" style="rounded=0;whiteSpace=wrap;html=1;" parent="JPlbqCN_LtyJlMGq5O9b-7" vertex="1">
                    <mxGeometry x="250" y="520" width="80" height="20" as="geometry"/>
                </mxCell>
                <mxCell id="JPlbqCN_LtyJlMGq5O9b-38" style="edgeStyle=orthogonalEdgeStyle;rounded=0;orthogonalLoop=1;jettySize=auto;html=1;entryX=0;entryY=0.5;entryDx=0;entryDy=0;" parent="JPlbqCN_LtyJlMGq5O9b-7" source="JPlbqCN_LtyJlMGq5O9b-39" target="JPlbqCN_LtyJlMGq5O9b-46" edge="1">
                    <mxGeometry relative="1" as="geometry"/>
                </mxCell>
                <mxCell id="JPlbqCN_LtyJlMGq5O9b-39" value="2bit" style="text;html=1;align=center;verticalAlign=middle;resizable=0;points=[];autosize=1;strokeColor=#d79b00;fillColor=#ffe6cc;" parent="JPlbqCN_LtyJlMGq5O9b-7" vertex="1">
                    <mxGeometry x="130" y="560" width="40" height="30" as="geometry"/>
                </mxCell>
                <mxCell id="JPlbqCN_LtyJlMGq5O9b-40" style="edgeStyle=orthogonalEdgeStyle;rounded=0;orthogonalLoop=1;jettySize=auto;html=1;entryX=1;entryY=0.5;entryDx=0;entryDy=0;exitX=0.5;exitY=1.022;exitDx=0;exitDy=0;exitPerimeter=0;" parent="JPlbqCN_LtyJlMGq5O9b-7" source="JPlbqCN_LtyJlMGq5O9b-41" target="JPlbqCN_LtyJlMGq5O9b-46" edge="1">
                    <mxGeometry relative="1" as="geometry"/>
                </mxCell>
                <mxCell id="JPlbqCN_LtyJlMGq5O9b-41" value="2bit" style="text;html=1;align=center;verticalAlign=middle;resizable=0;points=[];autosize=1;strokeColor=#d79b00;fillColor=#ffe6cc;" parent="JPlbqCN_LtyJlMGq5O9b-7" vertex="1">
                    <mxGeometry x="270" y="560" width="40" height="30" as="geometry"/>
                </mxCell>
                <mxCell id="JPlbqCN_LtyJlMGq5O9b-42" style="edgeStyle=orthogonalEdgeStyle;rounded=0;orthogonalLoop=1;jettySize=auto;html=1;entryX=0.505;entryY=0.021;entryDx=0;entryDy=0;entryPerimeter=0;" parent="JPlbqCN_LtyJlMGq5O9b-7" source="JPlbqCN_LtyJlMGq5O9b-36" target="JPlbqCN_LtyJlMGq5O9b-39" edge="1">
                    <mxGeometry relative="1" as="geometry"/>
                </mxCell>
                <mxCell id="JPlbqCN_LtyJlMGq5O9b-43" style="edgeStyle=orthogonalEdgeStyle;rounded=0;orthogonalLoop=1;jettySize=auto;html=1;entryX=0.5;entryY=0;entryDx=0;entryDy=0;entryPerimeter=0;" parent="JPlbqCN_LtyJlMGq5O9b-7" source="JPlbqCN_LtyJlMGq5O9b-37" target="JPlbqCN_LtyJlMGq5O9b-41" edge="1">
                    <mxGeometry relative="1" as="geometry"/>
                </mxCell>
                <mxCell id="JPlbqCN_LtyJlMGq5O9b-44" style="edgeStyle=orthogonalEdgeStyle;rounded=0;orthogonalLoop=1;jettySize=auto;html=1;entryX=0.5;entryY=0;entryDx=0;entryDy=0;" parent="JPlbqCN_LtyJlMGq5O9b-7" source="JPlbqCN_LtyJlMGq5O9b-45" target="JPlbqCN_LtyJlMGq5O9b-48" edge="1">
                    <mxGeometry relative="1" as="geometry"/>
                </mxCell>
                <mxCell id="JPlbqCN_LtyJlMGq5O9b-45" value="4bit" style="text;html=1;align=center;verticalAlign=middle;resizable=0;points=[];autosize=1;strokeColor=#d79b00;fillColor=#ffe6cc;" parent="JPlbqCN_LtyJlMGq5O9b-7" vertex="1">
                    <mxGeometry x="196" y="660" width="40" height="30" as="geometry"/>
                </mxCell>
                <mxCell id="JPlbqCN_LtyJlMGq5O9b-46" value="&lt;div&gt;&lt;div&gt;combine&lt;/div&gt;&lt;/div&gt;" style="rounded=0;whiteSpace=wrap;html=1;" parent="JPlbqCN_LtyJlMGq5O9b-7" vertex="1">
                    <mxGeometry x="170" y="610" width="90" height="20" as="geometry"/>
                </mxCell>
                <mxCell id="JPlbqCN_LtyJlMGq5O9b-47" style="edgeStyle=orthogonalEdgeStyle;rounded=0;orthogonalLoop=1;jettySize=auto;html=1;entryX=0.475;entryY=-0.056;entryDx=0;entryDy=0;entryPerimeter=0;" parent="JPlbqCN_LtyJlMGq5O9b-7" source="JPlbqCN_LtyJlMGq5O9b-46" target="JPlbqCN_LtyJlMGq5O9b-45" edge="1">
                    <mxGeometry relative="1" as="geometry"/>
                </mxCell>
                <mxCell id="JPlbqCN_LtyJlMGq5O9b-48" value="&lt;div&gt;Permutation P4&lt;/div&gt;" style="rounded=0;whiteSpace=wrap;html=1;" parent="JPlbqCN_LtyJlMGq5O9b-7" vertex="1">
                    <mxGeometry x="156" y="730" width="120" height="60" as="geometry"/>
                </mxCell>
                <mxCell id="JPlbqCN_LtyJlMGq5O9b-49" style="edgeStyle=orthogonalEdgeStyle;rounded=0;orthogonalLoop=1;jettySize=auto;html=1;entryX=0.5;entryY=0;entryDx=0;entryDy=0;" parent="JPlbqCN_LtyJlMGq5O9b-7" source="JPlbqCN_LtyJlMGq5O9b-50" target="JPlbqCN_LtyJlMGq5O9b-52" edge="1">
                    <mxGeometry relative="1" as="geometry"/>
                </mxCell>
                <mxCell id="JPlbqCN_LtyJlMGq5O9b-50" value="4bit" style="text;html=1;align=center;verticalAlign=middle;resizable=0;points=[];autosize=1;strokeColor=#d79b00;fillColor=#ffe6cc;" parent="JPlbqCN_LtyJlMGq5O9b-7" vertex="1">
                    <mxGeometry x="197" y="820" width="40" height="30" as="geometry"/>
                </mxCell>
                <mxCell id="JPlbqCN_LtyJlMGq5O9b-51" style="edgeStyle=orthogonalEdgeStyle;rounded=0;orthogonalLoop=1;jettySize=auto;html=1;exitX=0.5;exitY=1;exitDx=0;exitDy=0;entryX=0.48;entryY=-0.005;entryDx=0;entryDy=0;entryPerimeter=0;" parent="JPlbqCN_LtyJlMGq5O9b-7" source="JPlbqCN_LtyJlMGq5O9b-48" target="JPlbqCN_LtyJlMGq5O9b-50" edge="1">
                    <mxGeometry relative="1" as="geometry"/>
                </mxCell>
                <mxCell id="JPlbqCN_LtyJlMGq5O9b-52" value="&lt;div&gt;XOR&lt;br&gt;&lt;/div&gt;" style="rounded=0;whiteSpace=wrap;html=1;" parent="JPlbqCN_LtyJlMGq5O9b-7" vertex="1">
                    <mxGeometry x="197" y="880" width="40" height="25" as="geometry"/>
                </mxCell>
                <mxCell id="JPlbqCN_LtyJlMGq5O9b-53" style="edgeStyle=orthogonalEdgeStyle;rounded=0;orthogonalLoop=1;jettySize=auto;html=1;entryX=0.25;entryY=0;entryDx=0;entryDy=0;" parent="JPlbqCN_LtyJlMGq5O9b-7" source="JPlbqCN_LtyJlMGq5O9b-54" target="JPlbqCN_LtyJlMGq5O9b-56" edge="1">
                    <mxGeometry relative="1" as="geometry"/>
                </mxCell>
                <mxCell id="JPlbqCN_LtyJlMGq5O9b-54" value="4bit" style="text;html=1;align=center;verticalAlign=middle;resizable=0;points=[];autosize=1;strokeColor=#d79b00;fillColor=#ffe6cc;" parent="JPlbqCN_LtyJlMGq5O9b-7" vertex="1">
                    <mxGeometry x="197" y="930" width="40" height="30" as="geometry"/>
                </mxCell>
                <mxCell id="JPlbqCN_LtyJlMGq5O9b-55" style="edgeStyle=orthogonalEdgeStyle;rounded=0;orthogonalLoop=1;jettySize=auto;html=1;exitX=0.5;exitY=1;exitDx=0;exitDy=0;entryX=0.506;entryY=-0.085;entryDx=0;entryDy=0;entryPerimeter=0;" parent="JPlbqCN_LtyJlMGq5O9b-7" source="JPlbqCN_LtyJlMGq5O9b-52" target="JPlbqCN_LtyJlMGq5O9b-54" edge="1">
                    <mxGeometry relative="1" as="geometry"/>
                </mxCell>
                <mxCell id="JPlbqCN_LtyJlMGq5O9b-56" value="&lt;div&gt;&lt;div&gt;combine&lt;/div&gt;&lt;/div&gt;" style="rounded=0;whiteSpace=wrap;html=1;" parent="JPlbqCN_LtyJlMGq5O9b-7" vertex="1">
                    <mxGeometry x="260" y="970" width="75" height="20" as="geometry"/>
                </mxCell>
                <mxCell id="JPlbqCN_LtyJlMGq5O9b-57" style="edgeStyle=orthogonalEdgeStyle;rounded=0;orthogonalLoop=1;jettySize=auto;html=1;" parent="JPlbqCN_LtyJlMGq5O9b-7" source="JPlbqCN_LtyJlMGq5O9b-58" edge="1">
                    <mxGeometry relative="1" as="geometry">
                        <mxPoint x="299.5" y="1120" as="targetPoint"/>
                    </mxGeometry>
                </mxCell>
                <mxCell id="JPlbqCN_LtyJlMGq5O9b-58" value="8bit" style="text;html=1;align=center;verticalAlign=middle;resizable=0;points=[];autosize=1;strokeColor=#d79b00;fillColor=#ffe6cc;" parent="JPlbqCN_LtyJlMGq5O9b-7" vertex="1">
                    <mxGeometry x="279.5" y="1040" width="40" height="30" as="geometry"/>
                </mxCell>
                <mxCell id="JPlbqCN_LtyJlMGq5O9b-59" style="edgeStyle=orthogonalEdgeStyle;rounded=0;orthogonalLoop=1;jettySize=auto;html=1;exitX=0.5;exitY=1;exitDx=0;exitDy=0;entryX=0.459;entryY=-0.051;entryDx=0;entryDy=0;entryPerimeter=0;" parent="JPlbqCN_LtyJlMGq5O9b-7" source="JPlbqCN_LtyJlMGq5O9b-56" target="JPlbqCN_LtyJlMGq5O9b-58" edge="1">
                    <mxGeometry relative="1" as="geometry"/>
                </mxCell>
                <mxCell id="JPlbqCN_LtyJlMGq5O9b-60" value="&lt;div&gt;0b11110000&lt;/div&gt;&lt;div&gt;↓&lt;/div&gt;&lt;div&gt;&lt;font color=&quot;#ff0000&quot;&gt;0b1111 &lt;/font&gt;&lt;font color=&quot;#0000ff&quot;&gt;0b&lt;span style=&quot;background-color: initial;&quot;&gt;0000&lt;/span&gt;&lt;/font&gt;&lt;/div&gt;" style="text;html=1;align=center;verticalAlign=middle;resizable=0;points=[];autosize=1;strokeColor=none;fillColor=none;" parent="JPlbqCN_LtyJlMGq5O9b-7" vertex="1">
                    <mxGeometry x="99" y="114" width="100" height="60" as="geometry"/>
                </mxCell>
                <mxCell id="JPlbqCN_LtyJlMGq5O9b-61" value="&lt;div&gt;&lt;font style=&quot;background-color: initial;&quot; color=&quot;#ff0000&quot;&gt;0b11&amp;nbsp;&lt;/font&gt;&lt;font style=&quot;background-color: initial;&quot; color=&quot;#0000ff&quot;&gt;0b&lt;span style=&quot;background-color: initial;&quot;&gt;00&lt;/span&gt;&lt;/font&gt;&lt;/div&gt;&lt;div&gt;&lt;div&gt;↓&lt;/div&gt;&lt;/div&gt;&lt;div&gt;0b&lt;font color=&quot;#ff0000&quot;&gt;11&lt;/font&gt;&lt;font color=&quot;#0000ff&quot;&gt;00&lt;/font&gt;&lt;br&gt;&lt;/div&gt;" style="text;html=1;align=center;verticalAlign=middle;resizable=0;points=[];autosize=1;strokeColor=none;fillColor=none;" parent="JPlbqCN_LtyJlMGq5O9b-7" vertex="1">
                    <mxGeometry x="178" y="560" width="80" height="60" as="geometry"/>
                </mxCell>
                <mxCell id="JPlbqCN_LtyJlMGq5O9b-62" value="&lt;div&gt;Feistel 関数&lt;/div&gt;" style="rounded=0;whiteSpace=wrap;html=1;" parent="1" vertex="1">
                    <mxGeometry x="-1210" y="760" width="120" height="60" as="geometry"/>
                </mxCell>
                <mxCell id="JPlbqCN_LtyJlMGq5O9b-63" style="edgeStyle=orthogonalEdgeStyle;rounded=0;orthogonalLoop=1;jettySize=auto;html=1;entryX=0.5;entryY=0;entryDx=0;entryDy=0;" parent="1" source="JPlbqCN_LtyJlMGq5O9b-64" target="JPlbqCN_LtyJlMGq5O9b-68" edge="1">
                    <mxGeometry relative="1" as="geometry"/>
                </mxCell>
                <mxCell id="JPlbqCN_LtyJlMGq5O9b-64" value="8bit" style="text;html=1;align=center;verticalAlign=middle;resizable=0;points=[];autosize=1;strokeColor=#d79b00;fillColor=#ffe6cc;" parent="1" vertex="1">
                    <mxGeometry x="-1170" y="860" width="40" height="30" as="geometry"/>
                </mxCell>
                <mxCell id="JPlbqCN_LtyJlMGq5O9b-65" style="edgeStyle=orthogonalEdgeStyle;rounded=0;orthogonalLoop=1;jettySize=auto;html=1;entryX=0.5;entryY=0;entryDx=0;entryDy=0;" parent="1" source="JPlbqCN_LtyJlMGq5O9b-66" target="JPlbqCN_LtyJlMGq5O9b-69" edge="1">
                    <mxGeometry relative="1" as="geometry"/>
                </mxCell>
                <mxCell id="JPlbqCN_LtyJlMGq5O9b-66" value="8bit" style="text;html=1;align=center;verticalAlign=middle;resizable=0;points=[];autosize=1;strokeColor=#d79b00;fillColor=#ffe6cc;" parent="1" vertex="1">
                    <mxGeometry x="-1170" y="1020" width="40" height="30" as="geometry"/>
                </mxCell>
                <mxCell id="JPlbqCN_LtyJlMGq5O9b-67" style="edgeStyle=orthogonalEdgeStyle;rounded=0;orthogonalLoop=1;jettySize=auto;html=1;exitX=0.5;exitY=1;exitDx=0;exitDy=0;entryX=0.504;entryY=-0.031;entryDx=0;entryDy=0;entryPerimeter=0;" parent="1" source="JPlbqCN_LtyJlMGq5O9b-62" target="JPlbqCN_LtyJlMGq5O9b-64" edge="1">
                    <mxGeometry relative="1" as="geometry"/>
                </mxCell>
                <mxCell id="JPlbqCN_LtyJlMGq5O9b-68" value="&lt;span style=&quot;text-wrap: nowrap;&quot;&gt;Swap&lt;/span&gt;" style="rounded=0;whiteSpace=wrap;html=1;" parent="1" vertex="1">
                    <mxGeometry x="-1210" y="920" width="120" height="60" as="geometry"/>
                </mxCell>
                <mxCell id="JPlbqCN_LtyJlMGq5O9b-69" value="&lt;div&gt;Feistel&amp;nbsp;&lt;span style=&quot;background-color: initial;&quot;&gt;関数&lt;/span&gt;&lt;/div&gt;" style="rounded=0;whiteSpace=wrap;html=1;" parent="1" vertex="1">
                    <mxGeometry x="-1210" y="1080" width="120" height="60" as="geometry"/>
                </mxCell>
                <mxCell id="JPlbqCN_LtyJlMGq5O9b-70" style="edgeStyle=orthogonalEdgeStyle;rounded=0;orthogonalLoop=1;jettySize=auto;html=1;exitX=0.5;exitY=1;exitDx=0;exitDy=0;entryX=0.508;entryY=0.038;entryDx=0;entryDy=0;entryPerimeter=0;" parent="1" source="JPlbqCN_LtyJlMGq5O9b-68" target="JPlbqCN_LtyJlMGq5O9b-66" edge="1">
                    <mxGeometry relative="1" as="geometry"/>
                </mxCell>
                <mxCell id="JPlbqCN_LtyJlMGq5O9b-71" value="Final Permutation&lt;div&gt;(FP)&lt;/div&gt;" style="rounded=0;whiteSpace=wrap;html=1;" parent="1" vertex="1">
                    <mxGeometry x="-1211" y="1250" width="120" height="60" as="geometry"/>
                </mxCell>
                <mxCell id="JPlbqCN_LtyJlMGq5O9b-72" style="edgeStyle=orthogonalEdgeStyle;rounded=0;orthogonalLoop=1;jettySize=auto;html=1;entryX=0.5;entryY=0;entryDx=0;entryDy=0;" parent="1" source="JPlbqCN_LtyJlMGq5O9b-73" target="JPlbqCN_LtyJlMGq5O9b-71" edge="1">
                    <mxGeometry relative="1" as="geometry"/>
                </mxCell>
                <mxCell id="JPlbqCN_LtyJlMGq5O9b-73" value="8bit" style="text;html=1;align=center;verticalAlign=middle;resizable=0;points=[];autosize=1;strokeColor=#d79b00;fillColor=#ffe6cc;" parent="1" vertex="1">
                    <mxGeometry x="-1171" y="1170" width="40" height="30" as="geometry"/>
                </mxCell>
                <mxCell id="JPlbqCN_LtyJlMGq5O9b-74" style="edgeStyle=orthogonalEdgeStyle;rounded=0;orthogonalLoop=1;jettySize=auto;html=1;exitX=0.5;exitY=1;exitDx=0;exitDy=0;entryX=0.52;entryY=-0.053;entryDx=0;entryDy=0;entryPerimeter=0;" parent="1" source="JPlbqCN_LtyJlMGq5O9b-69" target="JPlbqCN_LtyJlMGq5O9b-73" edge="1">
                    <mxGeometry relative="1" as="geometry"/>
                </mxCell>
                <mxCell id="JPlbqCN_LtyJlMGq5O9b-75" value="出力(8bit)" style="text;html=1;align=center;verticalAlign=middle;resizable=0;points=[];autosize=1;strokeColor=#d79b00;fillColor=#ffe6cc;" parent="1" vertex="1">
                    <mxGeometry x="-1185" y="1370" width="70" height="30" as="geometry"/>
                </mxCell>
                <mxCell id="JPlbqCN_LtyJlMGq5O9b-76" style="edgeStyle=orthogonalEdgeStyle;rounded=0;orthogonalLoop=1;jettySize=auto;html=1;exitX=0.5;exitY=1;exitDx=0;exitDy=0;entryX=0.487;entryY=-0.02;entryDx=0;entryDy=0;entryPerimeter=0;" parent="1" source="JPlbqCN_LtyJlMGq5O9b-71" target="JPlbqCN_LtyJlMGq5O9b-75" edge="1">
                    <mxGeometry relative="1" as="geometry"/>
                </mxCell>
                <mxCell id="JPlbqCN_LtyJlMGq5O9b-77" value="&lt;div&gt;0b&lt;font color=&quot;#0000ff&quot;&gt;0000&lt;/font&gt;&lt;font color=&quot;#ff0000&quot;&gt;1111&lt;/font&gt;&lt;/div&gt;&lt;div&gt;↓&lt;/div&gt;&lt;div&gt;0b&lt;font color=&quot;#ff0000&quot;&gt;1111&lt;/font&gt;&lt;span style=&quot;color: rgb(0, 0, 255); background-color: initial;&quot;&gt;0000&lt;/span&gt;&lt;/div&gt;" style="text;html=1;align=center;verticalAlign=middle;resizable=0;points=[];autosize=1;strokeColor=none;fillColor=none;" parent="1" vertex="1">
                    <mxGeometry x="-1310" y="920" width="90" height="60" as="geometry"/>
                </mxCell>
                <mxCell id="JPlbqCN_LtyJlMGq5O9b-78" value="" style="endArrow=classic;html=1;rounded=0;entryX=0.992;entryY=0.462;entryDx=0;entryDy=0;entryPerimeter=0;" parent="1" target="JPlbqCN_LtyJlMGq5O9b-21" edge="1">
                    <mxGeometry width="50" height="50" relative="1" as="geometry">
                        <mxPoint x="-560" y="579" as="sourcePoint"/>
                        <mxPoint x="-560" y="576" as="targetPoint"/>
                    </mxGeometry>
                </mxCell>
                <mxCell id="JPlbqCN_LtyJlMGq5O9b-79" style="edgeStyle=orthogonalEdgeStyle;rounded=0;orthogonalLoop=1;jettySize=auto;html=1;entryX=1;entryY=0.5;entryDx=0;entryDy=0;" parent="1" source="JPlbqCN_LtyJlMGq5O9b-80" target="JPlbqCN_LtyJlMGq5O9b-62" edge="1">
                    <mxGeometry relative="1" as="geometry"/>
                </mxCell>
                <mxCell id="JPlbqCN_LtyJlMGq5O9b-80" value="SubKey1(8bit)" style="text;html=1;align=center;verticalAlign=middle;resizable=0;points=[];autosize=1;strokeColor=#d79b00;fillColor=#ffe6cc;" parent="1" vertex="1">
                    <mxGeometry x="-1070" y="775" width="100" height="30" as="geometry"/>
                </mxCell>
                <mxCell id="JPlbqCN_LtyJlMGq5O9b-81" style="edgeStyle=orthogonalEdgeStyle;rounded=0;orthogonalLoop=1;jettySize=auto;html=1;entryX=1;entryY=0.5;entryDx=0;entryDy=0;" parent="1" source="JPlbqCN_LtyJlMGq5O9b-82" target="JPlbqCN_LtyJlMGq5O9b-69" edge="1">
                    <mxGeometry relative="1" as="geometry"/>
                </mxCell>
                <mxCell id="JPlbqCN_LtyJlMGq5O9b-82" value="SubKey2(8bit)" style="text;html=1;align=center;verticalAlign=middle;resizable=0;points=[];autosize=1;strokeColor=#d79b00;fillColor=#ffe6cc;" parent="1" vertex="1">
                    <mxGeometry x="-1051" y="1095" width="100" height="30" as="geometry"/>
                </mxCell>
                <mxCell id="JPlbqCN_LtyJlMGq5O9b-86" style="edgeStyle=orthogonalEdgeStyle;rounded=0;orthogonalLoop=1;jettySize=auto;html=1;entryX=0.5;entryY=0;entryDx=0;entryDy=0;" parent="1" source="JPlbqCN_LtyJlMGq5O9b-83" target="JPlbqCN_LtyJlMGq5O9b-85" edge="1">
                    <mxGeometry relative="1" as="geometry"/>
                </mxCell>
                <mxCell id="JPlbqCN_LtyJlMGq5O9b-83" value="Key(10bit)" style="text;html=1;align=center;verticalAlign=middle;resizable=0;points=[];autosize=1;strokeColor=#d79b00;fillColor=#ffe6cc;" parent="1" vertex="1">
                    <mxGeometry x="-1045" y="520" width="80" height="30" as="geometry"/>
                </mxCell>
                <mxCell id="JPlbqCN_LtyJlMGq5O9b-85" value="鍵生成" style="rounded=0;whiteSpace=wrap;html=1;" parent="1" vertex="1">
                    <mxGeometry x="-1060" y="605" width="110" height="30" as="geometry"/>
                </mxCell>
                <mxCell id="JPlbqCN_LtyJlMGq5O9b-87" style="edgeStyle=orthogonalEdgeStyle;rounded=0;orthogonalLoop=1;jettySize=auto;html=1;exitX=0.25;exitY=1;exitDx=0;exitDy=0;entryX=0.381;entryY=0.051;entryDx=0;entryDy=0;entryPerimeter=0;" parent="1" source="JPlbqCN_LtyJlMGq5O9b-85" target="JPlbqCN_LtyJlMGq5O9b-80" edge="1">
                    <mxGeometry relative="1" as="geometry"/>
                </mxCell>
                <mxCell id="JPlbqCN_LtyJlMGq5O9b-88" style="edgeStyle=orthogonalEdgeStyle;rounded=0;orthogonalLoop=1;jettySize=auto;html=1;entryX=0.844;entryY=0.016;entryDx=0;entryDy=0;entryPerimeter=0;exitX=0.847;exitY=1.016;exitDx=0;exitDy=0;exitPerimeter=0;" parent="1" source="JPlbqCN_LtyJlMGq5O9b-85" target="JPlbqCN_LtyJlMGq5O9b-82" edge="1">
                    <mxGeometry relative="1" as="geometry">
                        <mxPoint x="-966" y="640" as="sourcePoint"/>
                    </mxGeometry>
                </mxCell>
                <mxCell id="JPlbqCN_LtyJlMGq5O9b-91" value="" style="shape=table;startSize=0;container=1;collapsible=0;childLayout=tableLayout;" parent="1" vertex="1">
                    <mxGeometry x="-1290" y="250" width="110" height="40" as="geometry"/>
                </mxCell>
                <mxCell id="JPlbqCN_LtyJlMGq5O9b-92" value="" style="shape=tableRow;horizontal=0;startSize=0;swimlaneHead=0;swimlaneBody=0;strokeColor=inherit;top=0;left=0;bottom=0;right=0;collapsible=0;dropTarget=0;fillColor=none;points=[[0,0.5],[1,0.5]];portConstraint=eastwest;" parent="JPlbqCN_LtyJlMGq5O9b-91" vertex="1">
                    <mxGeometry width="110" height="40" as="geometry"/>
                </mxCell>
                <mxCell id="JPlbqCN_LtyJlMGq5O9b-93" value="b1" style="shape=partialRectangle;html=1;whiteSpace=wrap;connectable=0;strokeColor=inherit;overflow=hidden;fillColor=none;top=0;left=0;bottom=0;right=0;pointerEvents=1;" parent="JPlbqCN_LtyJlMGq5O9b-92" vertex="1">
                    <mxGeometry width="27" height="40" as="geometry">
                        <mxRectangle width="27" height="40" as="alternateBounds"/>
                    </mxGeometry>
                </mxCell>
                <mxCell id="JPlbqCN_LtyJlMGq5O9b-94" value="b2" style="shape=partialRectangle;html=1;whiteSpace=wrap;connectable=0;strokeColor=inherit;overflow=hidden;fillColor=none;top=0;left=0;bottom=0;right=0;pointerEvents=1;" parent="JPlbqCN_LtyJlMGq5O9b-92" vertex="1">
                    <mxGeometry x="27" width="28" height="40" as="geometry">
                        <mxRectangle width="28" height="40" as="alternateBounds"/>
                    </mxGeometry>
                </mxCell>
                <mxCell id="JPlbqCN_LtyJlMGq5O9b-95" value="b3" style="shape=partialRectangle;html=1;whiteSpace=wrap;connectable=0;strokeColor=inherit;overflow=hidden;fillColor=none;top=0;left=0;bottom=0;right=0;pointerEvents=1;" parent="JPlbqCN_LtyJlMGq5O9b-92" vertex="1">
                    <mxGeometry x="55" width="28" height="40" as="geometry">
                        <mxRectangle width="28" height="40" as="alternateBounds"/>
                    </mxGeometry>
                </mxCell>
                <mxCell id="JPlbqCN_LtyJlMGq5O9b-96" value="b4" style="shape=partialRectangle;html=1;whiteSpace=wrap;connectable=0;strokeColor=inherit;overflow=hidden;fillColor=none;top=0;left=0;bottom=0;right=0;pointerEvents=1;" parent="JPlbqCN_LtyJlMGq5O9b-92" vertex="1">
                    <mxGeometry x="83" width="27" height="40" as="geometry">
                        <mxRectangle width="27" height="40" as="alternateBounds"/>
                    </mxGeometry>
                </mxCell>
                <mxCell id="JPlbqCN_LtyJlMGq5O9b-109" value="" style="shape=table;startSize=0;container=1;collapsible=0;childLayout=tableLayout;" parent="1" vertex="1">
                    <mxGeometry x="-1290" y="360" width="220" height="40" as="geometry"/>
                </mxCell>
                <mxCell id="JPlbqCN_LtyJlMGq5O9b-110" value="" style="shape=tableRow;horizontal=0;startSize=0;swimlaneHead=0;swimlaneBody=0;strokeColor=inherit;top=0;left=0;bottom=0;right=0;collapsible=0;dropTarget=0;fillColor=none;points=[[0,0.5],[1,0.5]];portConstraint=eastwest;" parent="JPlbqCN_LtyJlMGq5O9b-109" vertex="1">
                    <mxGeometry width="220" height="40" as="geometry"/>
                </mxCell>
                <mxCell id="JPlbqCN_LtyJlMGq5O9b-111" value="b4" style="shape=partialRectangle;html=1;whiteSpace=wrap;connectable=0;strokeColor=inherit;overflow=hidden;fillColor=none;top=0;left=0;bottom=0;right=0;pointerEvents=1;" parent="JPlbqCN_LtyJlMGq5O9b-110" vertex="1">
                    <mxGeometry width="27" height="40" as="geometry">
                        <mxRectangle width="27" height="40" as="alternateBounds"/>
                    </mxGeometry>
                </mxCell>
                <mxCell id="JPlbqCN_LtyJlMGq5O9b-112" value="b1" style="shape=partialRectangle;html=1;whiteSpace=wrap;connectable=0;strokeColor=inherit;overflow=hidden;fillColor=none;top=0;left=0;bottom=0;right=0;pointerEvents=1;" parent="JPlbqCN_LtyJlMGq5O9b-110" vertex="1">
                    <mxGeometry x="27" width="28" height="40" as="geometry">
                        <mxRectangle width="28" height="40" as="alternateBounds"/>
                    </mxGeometry>
                </mxCell>
                <mxCell id="JPlbqCN_LtyJlMGq5O9b-113" value="b2" style="shape=partialRectangle;html=1;whiteSpace=wrap;connectable=0;strokeColor=inherit;overflow=hidden;fillColor=none;top=0;left=0;bottom=0;right=0;pointerEvents=1;" parent="JPlbqCN_LtyJlMGq5O9b-110" vertex="1">
                    <mxGeometry x="55" width="28" height="40" as="geometry">
                        <mxRectangle width="28" height="40" as="alternateBounds"/>
                    </mxGeometry>
                </mxCell>
                <mxCell id="JPlbqCN_LtyJlMGq5O9b-114" value="b3" style="shape=partialRectangle;html=1;whiteSpace=wrap;connectable=0;strokeColor=inherit;overflow=hidden;fillColor=none;top=0;left=0;bottom=0;right=0;pointerEvents=1;" parent="JPlbqCN_LtyJlMGq5O9b-110" vertex="1">
                    <mxGeometry x="83" width="27" height="40" as="geometry">
                        <mxRectangle width="27" height="40" as="alternateBounds"/>
                    </mxGeometry>
                </mxCell>
                <mxCell id="JPlbqCN_LtyJlMGq5O9b-115" value="b2" style="shape=partialRectangle;html=1;whiteSpace=wrap;connectable=0;strokeColor=inherit;overflow=hidden;fillColor=none;top=0;left=0;bottom=0;right=0;pointerEvents=1;" parent="JPlbqCN_LtyJlMGq5O9b-110" vertex="1">
                    <mxGeometry x="110" width="27" height="40" as="geometry">
                        <mxRectangle width="27" height="40" as="alternateBounds"/>
                    </mxGeometry>
                </mxCell>
                <mxCell id="JPlbqCN_LtyJlMGq5O9b-116" value="b3" style="shape=partialRectangle;html=1;whiteSpace=wrap;connectable=0;strokeColor=inherit;overflow=hidden;fillColor=none;top=0;left=0;bottom=0;right=0;pointerEvents=1;" parent="JPlbqCN_LtyJlMGq5O9b-110" vertex="1">
                    <mxGeometry x="137" width="28" height="40" as="geometry">
                        <mxRectangle width="28" height="40" as="alternateBounds"/>
                    </mxGeometry>
                </mxCell>
                <mxCell id="JPlbqCN_LtyJlMGq5O9b-117" value="b4" style="shape=partialRectangle;html=1;whiteSpace=wrap;connectable=0;strokeColor=inherit;overflow=hidden;fillColor=none;top=0;left=0;bottom=0;right=0;pointerEvents=1;" parent="JPlbqCN_LtyJlMGq5O9b-110" vertex="1">
                    <mxGeometry x="165" width="28" height="40" as="geometry">
                        <mxRectangle width="28" height="40" as="alternateBounds"/>
                    </mxGeometry>
                </mxCell>
                <mxCell id="JPlbqCN_LtyJlMGq5O9b-118" value="b1" style="shape=partialRectangle;html=1;whiteSpace=wrap;connectable=0;strokeColor=inherit;overflow=hidden;fillColor=none;top=0;left=0;bottom=0;right=0;pointerEvents=1;" parent="JPlbqCN_LtyJlMGq5O9b-110" vertex="1">
                    <mxGeometry x="193" width="27" height="40" as="geometry">
                        <mxRectangle width="27" height="40" as="alternateBounds"/>
                    </mxGeometry>
                </mxCell>
                <mxCell id="JPlbqCN_LtyJlMGq5O9b-119" value="" style="endArrow=classic;html=1;rounded=0;exitX=0.106;exitY=1.043;exitDx=0;exitDy=0;exitPerimeter=0;entryX=0.185;entryY=-0.07;entryDx=0;entryDy=0;entryPerimeter=0;" parent="1" source="JPlbqCN_LtyJlMGq5O9b-92" target="JPlbqCN_LtyJlMGq5O9b-110" edge="1">
                    <mxGeometry width="50" height="50" relative="1" as="geometry">
                        <mxPoint x="-1050" y="310" as="sourcePoint"/>
                        <mxPoint x="-1000" y="260" as="targetPoint"/>
                    </mxGeometry>
                </mxCell>
                <mxCell id="JPlbqCN_LtyJlMGq5O9b-120" value="" style="endArrow=classic;html=1;rounded=0;exitX=0.114;exitY=1.043;exitDx=0;exitDy=0;exitPerimeter=0;entryX=0.954;entryY=0.02;entryDx=0;entryDy=0;entryPerimeter=0;" parent="1" source="JPlbqCN_LtyJlMGq5O9b-92" target="JPlbqCN_LtyJlMGq5O9b-110" edge="1">
                    <mxGeometry width="50" height="50" relative="1" as="geometry">
                        <mxPoint x="-1268" y="322" as="sourcePoint"/>
                        <mxPoint x="-1239" y="367" as="targetPoint"/>
                    </mxGeometry>
                </mxCell>
                <mxCell id="JPlbqCN_LtyJlMGq5O9b-121" value="" style="endArrow=classic;html=1;rounded=0;exitX=0.37;exitY=1.043;exitDx=0;exitDy=0;exitPerimeter=0;entryX=0.309;entryY=0.02;entryDx=0;entryDy=0;entryPerimeter=0;" parent="1" source="JPlbqCN_LtyJlMGq5O9b-92" target="JPlbqCN_LtyJlMGq5O9b-110" edge="1">
                    <mxGeometry width="50" height="50" relative="1" as="geometry">
                        <mxPoint x="-1268" y="302" as="sourcePoint"/>
                        <mxPoint x="-1239" y="367" as="targetPoint"/>
                    </mxGeometry>
                </mxCell>
                <mxCell id="JPlbqCN_LtyJlMGq5O9b-122" value="" style="endArrow=classic;html=1;rounded=0;exitX=0.362;exitY=1.02;exitDx=0;exitDy=0;exitPerimeter=0;entryX=0.553;entryY=0.02;entryDx=0;entryDy=0;entryPerimeter=0;" parent="1" source="JPlbqCN_LtyJlMGq5O9b-92" target="JPlbqCN_LtyJlMGq5O9b-110" edge="1">
                    <mxGeometry width="50" height="50" relative="1" as="geometry">
                        <mxPoint x="-1239" y="302" as="sourcePoint"/>
                        <mxPoint x="-1212" y="371" as="targetPoint"/>
                    </mxGeometry>
                </mxCell>
                <mxCell id="JPlbqCN_LtyJlMGq5O9b-123" value="" style="endArrow=classic;html=1;rounded=0;exitX=0.618;exitY=0.975;exitDx=0;exitDy=0;exitPerimeter=0;entryX=0.437;entryY=-0.025;entryDx=0;entryDy=0;entryPerimeter=0;" parent="1" source="JPlbqCN_LtyJlMGq5O9b-92" target="JPlbqCN_LtyJlMGq5O9b-110" edge="1">
                    <mxGeometry width="50" height="50" relative="1" as="geometry">
                        <mxPoint x="-1239" y="302" as="sourcePoint"/>
                        <mxPoint x="-1212" y="371" as="targetPoint"/>
                    </mxGeometry>
                </mxCell>
                <mxCell id="JPlbqCN_LtyJlMGq5O9b-124" value="" style="endArrow=classic;html=1;rounded=0;exitX=0.635;exitY=0.998;exitDx=0;exitDy=0;exitPerimeter=0;entryX=0.677;entryY=-0.002;entryDx=0;entryDy=0;entryPerimeter=0;" parent="1" source="JPlbqCN_LtyJlMGq5O9b-92" target="JPlbqCN_LtyJlMGq5O9b-110" edge="1">
                    <mxGeometry width="50" height="50" relative="1" as="geometry">
                        <mxPoint x="-1212" y="299" as="sourcePoint"/>
                        <mxPoint x="-1184" y="369" as="targetPoint"/>
                    </mxGeometry>
                </mxCell>
                <mxCell id="JPlbqCN_LtyJlMGq5O9b-125" value="" style="endArrow=classic;html=1;rounded=0;exitX=0.883;exitY=0.998;exitDx=0;exitDy=0;exitPerimeter=0;entryX=0.065;entryY=0.02;entryDx=0;entryDy=0;entryPerimeter=0;" parent="1" source="JPlbqCN_LtyJlMGq5O9b-92" target="JPlbqCN_LtyJlMGq5O9b-110" edge="1">
                    <mxGeometry width="50" height="50" relative="1" as="geometry">
                        <mxPoint x="-1210" y="300" as="sourcePoint"/>
                        <mxPoint x="-1131" y="370" as="targetPoint"/>
                    </mxGeometry>
                </mxCell>
                <mxCell id="JPlbqCN_LtyJlMGq5O9b-126" value="" style="endArrow=classic;html=1;rounded=0;exitX=0.883;exitY=1.043;exitDx=0;exitDy=0;exitPerimeter=0;entryX=0.809;entryY=-0.025;entryDx=0;entryDy=0;entryPerimeter=0;" parent="1" source="JPlbqCN_LtyJlMGq5O9b-92" target="JPlbqCN_LtyJlMGq5O9b-110" edge="1">
                    <mxGeometry width="50" height="50" relative="1" as="geometry">
                        <mxPoint x="-1183" y="300" as="sourcePoint"/>
                        <mxPoint x="-1266" y="371" as="targetPoint"/>
                    </mxGeometry>
                </mxCell>
                <mxCell id="JPlbqCN_LtyJlMGq5O9b-127" value="" style="shape=table;startSize=0;container=1;collapsible=0;childLayout=tableLayout;" parent="1" vertex="1">
                    <mxGeometry x="-930" y="40" width="218" height="40" as="geometry"/>
                </mxCell>
                <mxCell id="JPlbqCN_LtyJlMGq5O9b-128" value="" style="shape=tableRow;horizontal=0;startSize=0;swimlaneHead=0;swimlaneBody=0;strokeColor=inherit;top=0;left=0;bottom=0;right=0;collapsible=0;dropTarget=0;fillColor=none;points=[[0,0.5],[1,0.5]];portConstraint=eastwest;" parent="JPlbqCN_LtyJlMGq5O9b-127" vertex="1">
                    <mxGeometry width="218" height="40" as="geometry"/>
                </mxCell>
                <mxCell id="JPlbqCN_LtyJlMGq5O9b-129" value="b1" style="shape=partialRectangle;html=1;whiteSpace=wrap;connectable=0;strokeColor=inherit;overflow=hidden;fillColor=none;top=0;left=0;bottom=0;right=0;pointerEvents=1;" parent="JPlbqCN_LtyJlMGq5O9b-128" vertex="1">
                    <mxGeometry width="27" height="40" as="geometry">
                        <mxRectangle width="27" height="40" as="alternateBounds"/>
                    </mxGeometry>
                </mxCell>
                <mxCell id="JPlbqCN_LtyJlMGq5O9b-130" value="b2" style="shape=partialRectangle;html=1;whiteSpace=wrap;connectable=0;strokeColor=inherit;overflow=hidden;fillColor=none;top=0;left=0;bottom=0;right=0;pointerEvents=1;" parent="JPlbqCN_LtyJlMGq5O9b-128" vertex="1">
                    <mxGeometry x="27" width="28" height="40" as="geometry">
                        <mxRectangle width="28" height="40" as="alternateBounds"/>
                    </mxGeometry>
                </mxCell>
                <mxCell id="JPlbqCN_LtyJlMGq5O9b-131" value="b3" style="shape=partialRectangle;html=1;whiteSpace=wrap;connectable=0;strokeColor=inherit;overflow=hidden;fillColor=none;top=0;left=0;bottom=0;right=0;pointerEvents=1;" parent="JPlbqCN_LtyJlMGq5O9b-128" vertex="1">
                    <mxGeometry x="55" width="28" height="40" as="geometry">
                        <mxRectangle width="28" height="40" as="alternateBounds"/>
                    </mxGeometry>
                </mxCell>
                <mxCell id="JPlbqCN_LtyJlMGq5O9b-132" value="b4" style="shape=partialRectangle;html=1;whiteSpace=wrap;connectable=0;strokeColor=inherit;overflow=hidden;fillColor=none;top=0;left=0;bottom=0;right=0;pointerEvents=1;" parent="JPlbqCN_LtyJlMGq5O9b-128" vertex="1">
                    <mxGeometry x="83" width="27" height="40" as="geometry">
                        <mxRectangle width="27" height="40" as="alternateBounds"/>
                    </mxGeometry>
                </mxCell>
                <mxCell id="JPlbqCN_LtyJlMGq5O9b-151" value="b5" style="shape=partialRectangle;html=1;whiteSpace=wrap;connectable=0;strokeColor=inherit;overflow=hidden;fillColor=none;top=0;left=0;bottom=0;right=0;pointerEvents=1;" parent="JPlbqCN_LtyJlMGq5O9b-128" vertex="1">
                    <mxGeometry x="110" width="27" height="40" as="geometry">
                        <mxRectangle width="27" height="40" as="alternateBounds"/>
                    </mxGeometry>
                </mxCell>
                <mxCell id="JPlbqCN_LtyJlMGq5O9b-152" value="b6" style="shape=partialRectangle;html=1;whiteSpace=wrap;connectable=0;strokeColor=inherit;overflow=hidden;fillColor=none;top=0;left=0;bottom=0;right=0;pointerEvents=1;" parent="JPlbqCN_LtyJlMGq5O9b-128" vertex="1">
                    <mxGeometry x="137" width="27" height="40" as="geometry">
                        <mxRectangle width="27" height="40" as="alternateBounds"/>
                    </mxGeometry>
                </mxCell>
                <mxCell id="JPlbqCN_LtyJlMGq5O9b-153" value="b7" style="shape=partialRectangle;html=1;whiteSpace=wrap;connectable=0;strokeColor=inherit;overflow=hidden;fillColor=none;top=0;left=0;bottom=0;right=0;pointerEvents=1;" parent="JPlbqCN_LtyJlMGq5O9b-128" vertex="1">
                    <mxGeometry x="164" width="27" height="40" as="geometry">
                        <mxRectangle width="27" height="40" as="alternateBounds"/>
                    </mxGeometry>
                </mxCell>
                <mxCell id="JPlbqCN_LtyJlMGq5O9b-154" value="b8" style="shape=partialRectangle;html=1;whiteSpace=wrap;connectable=0;strokeColor=inherit;overflow=hidden;fillColor=none;top=0;left=0;bottom=0;right=0;pointerEvents=1;" parent="JPlbqCN_LtyJlMGq5O9b-128" vertex="1">
                    <mxGeometry x="191" width="27" height="40" as="geometry">
                        <mxRectangle width="27" height="40" as="alternateBounds"/>
                    </mxGeometry>
                </mxCell>
                <mxCell id="JPlbqCN_LtyJlMGq5O9b-133" value="" style="shape=table;startSize=0;container=1;collapsible=0;childLayout=tableLayout;" parent="1" vertex="1">
                    <mxGeometry x="-930" y="150" width="220" height="40" as="geometry"/>
                </mxCell>
                <mxCell id="JPlbqCN_LtyJlMGq5O9b-134" value="" style="shape=tableRow;horizontal=0;startSize=0;swimlaneHead=0;swimlaneBody=0;strokeColor=inherit;top=0;left=0;bottom=0;right=0;collapsible=0;dropTarget=0;fillColor=none;points=[[0,0.5],[1,0.5]];portConstraint=eastwest;" parent="JPlbqCN_LtyJlMGq5O9b-133" vertex="1">
                    <mxGeometry width="220" height="40" as="geometry"/>
                </mxCell>
                <mxCell id="JPlbqCN_LtyJlMGq5O9b-135" value="b2" style="shape=partialRectangle;html=1;whiteSpace=wrap;connectable=0;strokeColor=inherit;overflow=hidden;fillColor=none;top=0;left=0;bottom=0;right=0;pointerEvents=1;" parent="JPlbqCN_LtyJlMGq5O9b-134" vertex="1">
                    <mxGeometry width="27" height="40" as="geometry">
                        <mxRectangle width="27" height="40" as="alternateBounds"/>
                    </mxGeometry>
                </mxCell>
                <mxCell id="JPlbqCN_LtyJlMGq5O9b-136" value="b6" style="shape=partialRectangle;html=1;whiteSpace=wrap;connectable=0;strokeColor=inherit;overflow=hidden;fillColor=none;top=0;left=0;bottom=0;right=0;pointerEvents=1;" parent="JPlbqCN_LtyJlMGq5O9b-134" vertex="1">
                    <mxGeometry x="27" width="28" height="40" as="geometry">
                        <mxRectangle width="28" height="40" as="alternateBounds"/>
                    </mxGeometry>
                </mxCell>
                <mxCell id="JPlbqCN_LtyJlMGq5O9b-137" value="b3" style="shape=partialRectangle;html=1;whiteSpace=wrap;connectable=0;strokeColor=inherit;overflow=hidden;fillColor=none;top=0;left=0;bottom=0;right=0;pointerEvents=1;" parent="JPlbqCN_LtyJlMGq5O9b-134" vertex="1">
                    <mxGeometry x="55" width="28" height="40" as="geometry">
                        <mxRectangle width="28" height="40" as="alternateBounds"/>
                    </mxGeometry>
                </mxCell>
                <mxCell id="JPlbqCN_LtyJlMGq5O9b-138" value="b1" style="shape=partialRectangle;html=1;whiteSpace=wrap;connectable=0;strokeColor=inherit;overflow=hidden;fillColor=none;top=0;left=0;bottom=0;right=0;pointerEvents=1;" parent="JPlbqCN_LtyJlMGq5O9b-134" vertex="1">
                    <mxGeometry x="83" width="27" height="40" as="geometry">
                        <mxRectangle width="27" height="40" as="alternateBounds"/>
                    </mxGeometry>
                </mxCell>
                <mxCell id="JPlbqCN_LtyJlMGq5O9b-139" value="b4" style="shape=partialRectangle;html=1;whiteSpace=wrap;connectable=0;strokeColor=inherit;overflow=hidden;fillColor=none;top=0;left=0;bottom=0;right=0;pointerEvents=1;" parent="JPlbqCN_LtyJlMGq5O9b-134" vertex="1">
                    <mxGeometry x="110" width="27" height="40" as="geometry">
                        <mxRectangle width="27" height="40" as="alternateBounds"/>
                    </mxGeometry>
                </mxCell>
                <mxCell id="JPlbqCN_LtyJlMGq5O9b-140" value="b8" style="shape=partialRectangle;html=1;whiteSpace=wrap;connectable=0;strokeColor=inherit;overflow=hidden;fillColor=none;top=0;left=0;bottom=0;right=0;pointerEvents=1;" parent="JPlbqCN_LtyJlMGq5O9b-134" vertex="1">
                    <mxGeometry x="137" width="28" height="40" as="geometry">
                        <mxRectangle width="28" height="40" as="alternateBounds"/>
                    </mxGeometry>
                </mxCell>
                <mxCell id="JPlbqCN_LtyJlMGq5O9b-141" value="b5" style="shape=partialRectangle;html=1;whiteSpace=wrap;connectable=0;strokeColor=inherit;overflow=hidden;fillColor=none;top=0;left=0;bottom=0;right=0;pointerEvents=1;" parent="JPlbqCN_LtyJlMGq5O9b-134" vertex="1">
                    <mxGeometry x="165" width="28" height="40" as="geometry">
                        <mxRectangle width="28" height="40" as="alternateBounds"/>
                    </mxGeometry>
                </mxCell>
                <mxCell id="JPlbqCN_LtyJlMGq5O9b-142" value="b7" style="shape=partialRectangle;html=1;whiteSpace=wrap;connectable=0;strokeColor=inherit;overflow=hidden;fillColor=none;top=0;left=0;bottom=0;right=0;pointerEvents=1;" parent="JPlbqCN_LtyJlMGq5O9b-134" vertex="1">
                    <mxGeometry x="193" width="27" height="40" as="geometry">
                        <mxRectangle width="27" height="40" as="alternateBounds"/>
                    </mxGeometry>
                </mxCell>
                <mxCell id="JPlbqCN_LtyJlMGq5O9b-143" value="" style="endArrow=classic;html=1;rounded=0;exitX=0.679;exitY=0.998;exitDx=0;exitDy=0;exitPerimeter=0;entryX=0.185;entryY=-0.07;entryDx=0;entryDy=0;entryPerimeter=0;" parent="1" source="JPlbqCN_LtyJlMGq5O9b-128" target="JPlbqCN_LtyJlMGq5O9b-134" edge="1">
                    <mxGeometry width="50" height="50" relative="1" as="geometry">
                        <mxPoint x="-690" y="100" as="sourcePoint"/>
                        <mxPoint x="-640" y="50" as="targetPoint"/>
                    </mxGeometry>
                </mxCell>
                <mxCell id="JPlbqCN_LtyJlMGq5O9b-144" value="" style="endArrow=classic;html=1;rounded=0;exitX=0.817;exitY=1.043;exitDx=0;exitDy=0;exitPerimeter=0;entryX=0.954;entryY=0.02;entryDx=0;entryDy=0;entryPerimeter=0;" parent="1" source="JPlbqCN_LtyJlMGq5O9b-128" target="JPlbqCN_LtyJlMGq5O9b-134" edge="1">
                    <mxGeometry width="50" height="50" relative="1" as="geometry">
                        <mxPoint x="-908" y="112" as="sourcePoint"/>
                        <mxPoint x="-879" y="157" as="targetPoint"/>
                    </mxGeometry>
                </mxCell>
                <mxCell id="JPlbqCN_LtyJlMGq5O9b-145" value="" style="endArrow=classic;html=1;rounded=0;entryX=0.309;entryY=0.02;entryDx=0;entryDy=0;entryPerimeter=0;" parent="1" target="JPlbqCN_LtyJlMGq5O9b-134" edge="1">
                    <mxGeometry width="50" height="50" relative="1" as="geometry">
                        <mxPoint x="-860" y="82" as="sourcePoint"/>
                        <mxPoint x="-879" y="157" as="targetPoint"/>
                    </mxGeometry>
                </mxCell>
                <mxCell id="JPlbqCN_LtyJlMGq5O9b-146" value="" style="endArrow=classic;html=1;rounded=0;entryX=0.553;entryY=0.02;entryDx=0;entryDy=0;entryPerimeter=0;exitX=0.429;exitY=1.02;exitDx=0;exitDy=0;exitPerimeter=0;" parent="1" source="JPlbqCN_LtyJlMGq5O9b-128" target="JPlbqCN_LtyJlMGq5O9b-134" edge="1">
                    <mxGeometry width="50" height="50" relative="1" as="geometry">
                        <mxPoint x="-851" y="81" as="sourcePoint"/>
                        <mxPoint x="-852" y="161" as="targetPoint"/>
                    </mxGeometry>
                </mxCell>
                <mxCell id="JPlbqCN_LtyJlMGq5O9b-147" value="" style="endArrow=classic;html=1;rounded=0;exitX=0.083;exitY=1.066;exitDx=0;exitDy=0;exitPerimeter=0;entryX=0.437;entryY=-0.025;entryDx=0;entryDy=0;entryPerimeter=0;" parent="1" source="JPlbqCN_LtyJlMGq5O9b-128" target="JPlbqCN_LtyJlMGq5O9b-134" edge="1">
                    <mxGeometry width="50" height="50" relative="1" as="geometry">
                        <mxPoint x="-879" y="92" as="sourcePoint"/>
                        <mxPoint x="-852" y="161" as="targetPoint"/>
                    </mxGeometry>
                </mxCell>
                <mxCell id="JPlbqCN_LtyJlMGq5O9b-148" value="" style="endArrow=classic;html=1;rounded=0;exitX=0.933;exitY=0.975;exitDx=0;exitDy=0;exitPerimeter=0;entryX=0.677;entryY=-0.002;entryDx=0;entryDy=0;entryPerimeter=0;" parent="1" source="JPlbqCN_LtyJlMGq5O9b-128" target="JPlbqCN_LtyJlMGq5O9b-134" edge="1">
                    <mxGeometry width="50" height="50" relative="1" as="geometry">
                        <mxPoint x="-852" y="89" as="sourcePoint"/>
                        <mxPoint x="-824" y="159" as="targetPoint"/>
                    </mxGeometry>
                </mxCell>
                <mxCell id="JPlbqCN_LtyJlMGq5O9b-149" value="" style="endArrow=classic;html=1;rounded=0;exitX=0.187;exitY=1.043;exitDx=0;exitDy=0;exitPerimeter=0;entryX=0.065;entryY=0.02;entryDx=0;entryDy=0;entryPerimeter=0;" parent="1" source="JPlbqCN_LtyJlMGq5O9b-128" target="JPlbqCN_LtyJlMGq5O9b-134" edge="1">
                    <mxGeometry width="50" height="50" relative="1" as="geometry">
                        <mxPoint x="-850" y="90" as="sourcePoint"/>
                        <mxPoint x="-771" y="160" as="targetPoint"/>
                    </mxGeometry>
                </mxCell>
                <mxCell id="JPlbqCN_LtyJlMGq5O9b-150" value="" style="endArrow=classic;html=1;rounded=0;exitX=0.579;exitY=1.043;exitDx=0;exitDy=0;exitPerimeter=0;entryX=0.809;entryY=-0.025;entryDx=0;entryDy=0;entryPerimeter=0;" parent="1" source="JPlbqCN_LtyJlMGq5O9b-128" target="JPlbqCN_LtyJlMGq5O9b-134" edge="1">
                    <mxGeometry width="50" height="50" relative="1" as="geometry">
                        <mxPoint x="-823" y="90" as="sourcePoint"/>
                        <mxPoint x="-906" y="161" as="targetPoint"/>
                    </mxGeometry>
                </mxCell>
                <mxCell id="JPlbqCN_LtyJlMGq5O9b-160" value="" style="shape=table;startSize=0;container=1;collapsible=0;childLayout=tableLayout;" parent="1" vertex="1">
                    <mxGeometry x="-600" y="250" width="110" height="40" as="geometry"/>
                </mxCell>
                <mxCell id="JPlbqCN_LtyJlMGq5O9b-161" value="" style="shape=tableRow;horizontal=0;startSize=0;swimlaneHead=0;swimlaneBody=0;strokeColor=inherit;top=0;left=0;bottom=0;right=0;collapsible=0;dropTarget=0;fillColor=none;points=[[0,0.5],[1,0.5]];portConstraint=eastwest;" parent="JPlbqCN_LtyJlMGq5O9b-160" vertex="1">
                    <mxGeometry width="110" height="40" as="geometry"/>
                </mxCell>
                <mxCell id="JPlbqCN_LtyJlMGq5O9b-162" value="b1" style="shape=partialRectangle;html=1;whiteSpace=wrap;connectable=0;strokeColor=inherit;overflow=hidden;fillColor=none;top=0;left=0;bottom=0;right=0;pointerEvents=1;" parent="JPlbqCN_LtyJlMGq5O9b-161" vertex="1">
                    <mxGeometry width="27" height="40" as="geometry">
                        <mxRectangle width="27" height="40" as="alternateBounds"/>
                    </mxGeometry>
                </mxCell>
                <mxCell id="JPlbqCN_LtyJlMGq5O9b-163" value="b2" style="shape=partialRectangle;html=1;whiteSpace=wrap;connectable=0;strokeColor=inherit;overflow=hidden;fillColor=none;top=0;left=0;bottom=0;right=0;pointerEvents=1;" parent="JPlbqCN_LtyJlMGq5O9b-161" vertex="1">
                    <mxGeometry x="27" width="28" height="40" as="geometry">
                        <mxRectangle width="28" height="40" as="alternateBounds"/>
                    </mxGeometry>
                </mxCell>
                <mxCell id="JPlbqCN_LtyJlMGq5O9b-164" value="b3" style="shape=partialRectangle;html=1;whiteSpace=wrap;connectable=0;strokeColor=inherit;overflow=hidden;fillColor=none;top=0;left=0;bottom=0;right=0;pointerEvents=1;" parent="JPlbqCN_LtyJlMGq5O9b-161" vertex="1">
                    <mxGeometry x="55" width="28" height="40" as="geometry">
                        <mxRectangle width="28" height="40" as="alternateBounds"/>
                    </mxGeometry>
                </mxCell>
                <mxCell id="JPlbqCN_LtyJlMGq5O9b-165" value="b4" style="shape=partialRectangle;html=1;whiteSpace=wrap;connectable=0;strokeColor=inherit;overflow=hidden;fillColor=none;top=0;left=0;bottom=0;right=0;pointerEvents=1;" parent="JPlbqCN_LtyJlMGq5O9b-161" vertex="1">
                    <mxGeometry x="83" width="27" height="40" as="geometry">
                        <mxRectangle width="27" height="40" as="alternateBounds"/>
                    </mxGeometry>
                </mxCell>
                <mxCell id="JPlbqCN_LtyJlMGq5O9b-166" value="" style="shape=table;startSize=0;container=1;collapsible=0;childLayout=tableLayout;" parent="1" vertex="1">
                    <mxGeometry x="-600" y="360" width="110" height="40" as="geometry"/>
                </mxCell>
                <mxCell id="JPlbqCN_LtyJlMGq5O9b-167" value="" style="shape=tableRow;horizontal=0;startSize=0;swimlaneHead=0;swimlaneBody=0;strokeColor=inherit;top=0;left=0;bottom=0;right=0;collapsible=0;dropTarget=0;fillColor=none;points=[[0,0.5],[1,0.5]];portConstraint=eastwest;" parent="JPlbqCN_LtyJlMGq5O9b-166" vertex="1">
                    <mxGeometry width="110" height="40" as="geometry"/>
                </mxCell>
                <mxCell id="JPlbqCN_LtyJlMGq5O9b-168" value="b2" style="shape=partialRectangle;html=1;whiteSpace=wrap;connectable=0;strokeColor=inherit;overflow=hidden;fillColor=none;top=0;left=0;bottom=0;right=0;pointerEvents=1;" parent="JPlbqCN_LtyJlMGq5O9b-167" vertex="1">
                    <mxGeometry width="27" height="40" as="geometry">
                        <mxRectangle width="27" height="40" as="alternateBounds"/>
                    </mxGeometry>
                </mxCell>
                <mxCell id="JPlbqCN_LtyJlMGq5O9b-169" value="b4" style="shape=partialRectangle;html=1;whiteSpace=wrap;connectable=0;strokeColor=inherit;overflow=hidden;fillColor=none;top=0;left=0;bottom=0;right=0;pointerEvents=1;" parent="JPlbqCN_LtyJlMGq5O9b-167" vertex="1">
                    <mxGeometry x="27" width="28" height="40" as="geometry">
                        <mxRectangle width="28" height="40" as="alternateBounds"/>
                    </mxGeometry>
                </mxCell>
                <mxCell id="JPlbqCN_LtyJlMGq5O9b-170" value="b3" style="shape=partialRectangle;html=1;whiteSpace=wrap;connectable=0;strokeColor=inherit;overflow=hidden;fillColor=none;top=0;left=0;bottom=0;right=0;pointerEvents=1;" parent="JPlbqCN_LtyJlMGq5O9b-167" vertex="1">
                    <mxGeometry x="55" width="28" height="40" as="geometry">
                        <mxRectangle width="28" height="40" as="alternateBounds"/>
                    </mxGeometry>
                </mxCell>
                <mxCell id="JPlbqCN_LtyJlMGq5O9b-171" value="b1" style="shape=partialRectangle;html=1;whiteSpace=wrap;connectable=0;strokeColor=inherit;overflow=hidden;fillColor=none;top=0;left=0;bottom=0;right=0;pointerEvents=1;" parent="JPlbqCN_LtyJlMGq5O9b-167" vertex="1">
                    <mxGeometry x="83" width="27" height="40" as="geometry">
                        <mxRectangle width="27" height="40" as="alternateBounds"/>
                    </mxGeometry>
                </mxCell>
                <mxCell id="JPlbqCN_LtyJlMGq5O9b-172" value="" style="endArrow=classic;html=1;rounded=0;exitX=0.139;exitY=1.02;exitDx=0;exitDy=0;exitPerimeter=0;entryX=0.883;entryY=-0.025;entryDx=0;entryDy=0;entryPerimeter=0;" parent="1" source="JPlbqCN_LtyJlMGq5O9b-161" target="JPlbqCN_LtyJlMGq5O9b-167" edge="1">
                    <mxGeometry width="50" height="50" relative="1" as="geometry">
                        <mxPoint x="-902" y="303" as="sourcePoint"/>
                        <mxPoint x="-824" y="369" as="targetPoint"/>
                    </mxGeometry>
                </mxCell>
                <mxCell id="JPlbqCN_LtyJlMGq5O9b-173" value="" style="endArrow=classic;html=1;rounded=0;exitX=0.362;exitY=0.998;exitDx=0;exitDy=0;exitPerimeter=0;entryX=0.114;entryY=0.02;entryDx=0;entryDy=0;entryPerimeter=0;" parent="1" source="JPlbqCN_LtyJlMGq5O9b-161" target="JPlbqCN_LtyJlMGq5O9b-167" edge="1">
                    <mxGeometry width="50" height="50" relative="1" as="geometry">
                        <mxPoint x="-575" y="301" as="sourcePoint"/>
                        <mxPoint x="-493" y="369" as="targetPoint"/>
                    </mxGeometry>
                </mxCell>
                <mxCell id="JPlbqCN_LtyJlMGq5O9b-174" value="" style="endArrow=classic;html=1;rounded=0;exitX=0.626;exitY=0.998;exitDx=0;exitDy=0;exitPerimeter=0;entryX=0.626;entryY=-0.002;entryDx=0;entryDy=0;entryPerimeter=0;" parent="1" source="JPlbqCN_LtyJlMGq5O9b-161" target="JPlbqCN_LtyJlMGq5O9b-167" edge="1">
                    <mxGeometry width="50" height="50" relative="1" as="geometry">
                        <mxPoint x="-550" y="300" as="sourcePoint"/>
                        <mxPoint x="-577" y="371" as="targetPoint"/>
                    </mxGeometry>
                </mxCell>
                <mxCell id="JPlbqCN_LtyJlMGq5O9b-175" value="" style="endArrow=classic;html=1;rounded=0;exitX=0.883;exitY=0.975;exitDx=0;exitDy=0;exitPerimeter=0;entryX=0.362;entryY=-0.025;entryDx=0;entryDy=0;entryPerimeter=0;" parent="1" source="JPlbqCN_LtyJlMGq5O9b-161" target="JPlbqCN_LtyJlMGq5O9b-167" edge="1">
                    <mxGeometry width="50" height="50" relative="1" as="geometry">
                        <mxPoint x="-521" y="300" as="sourcePoint"/>
                        <mxPoint x="-521" y="370" as="targetPoint"/>
                    </mxGeometry>
                </mxCell>
                <mxCell id="JPlbqCN_LtyJlMGq5O9b-176" value="" style="shape=image;verticalLabelPosition=bottom;labelBackgroundColor=default;verticalAlign=top;aspect=fixed;imageAspect=0;image=https://media.geeksforgeeks.org/wp-content/uploads/20210205163907/GFGPage8.png;" parent="1" vertex="1">
                    <mxGeometry x="-654" y="-70" width="481" height="231" as="geometry"/>
                </mxCell>
                <mxCell id="JPlbqCN_LtyJlMGq5O9b-177" value="" style="shape=table;startSize=0;container=1;collapsible=0;childLayout=tableLayout;" parent="1" vertex="1">
                    <mxGeometry x="-930" y="250" width="218" height="40" as="geometry"/>
                </mxCell>
                <mxCell id="JPlbqCN_LtyJlMGq5O9b-178" value="" style="shape=tableRow;horizontal=0;startSize=0;swimlaneHead=0;swimlaneBody=0;strokeColor=inherit;top=0;left=0;bottom=0;right=0;collapsible=0;dropTarget=0;fillColor=none;points=[[0,0.5],[1,0.5]];portConstraint=eastwest;" parent="JPlbqCN_LtyJlMGq5O9b-177" vertex="1">
                    <mxGeometry width="218" height="40" as="geometry"/>
                </mxCell>
                <mxCell id="JPlbqCN_LtyJlMGq5O9b-179" value="b1" style="shape=partialRectangle;html=1;whiteSpace=wrap;connectable=0;strokeColor=inherit;overflow=hidden;fillColor=none;top=0;left=0;bottom=0;right=0;pointerEvents=1;" parent="JPlbqCN_LtyJlMGq5O9b-178" vertex="1">
                    <mxGeometry width="27" height="40" as="geometry">
                        <mxRectangle width="27" height="40" as="alternateBounds"/>
                    </mxGeometry>
                </mxCell>
                <mxCell id="JPlbqCN_LtyJlMGq5O9b-180" value="b2" style="shape=partialRectangle;html=1;whiteSpace=wrap;connectable=0;strokeColor=inherit;overflow=hidden;fillColor=none;top=0;left=0;bottom=0;right=0;pointerEvents=1;" parent="JPlbqCN_LtyJlMGq5O9b-178" vertex="1">
                    <mxGeometry x="27" width="28" height="40" as="geometry">
                        <mxRectangle width="28" height="40" as="alternateBounds"/>
                    </mxGeometry>
                </mxCell>
                <mxCell id="JPlbqCN_LtyJlMGq5O9b-181" value="b3" style="shape=partialRectangle;html=1;whiteSpace=wrap;connectable=0;strokeColor=inherit;overflow=hidden;fillColor=none;top=0;left=0;bottom=0;right=0;pointerEvents=1;" parent="JPlbqCN_LtyJlMGq5O9b-178" vertex="1">
                    <mxGeometry x="55" width="28" height="40" as="geometry">
                        <mxRectangle width="28" height="40" as="alternateBounds"/>
                    </mxGeometry>
                </mxCell>
                <mxCell id="JPlbqCN_LtyJlMGq5O9b-182" value="b4" style="shape=partialRectangle;html=1;whiteSpace=wrap;connectable=0;strokeColor=inherit;overflow=hidden;fillColor=none;top=0;left=0;bottom=0;right=0;pointerEvents=1;" parent="JPlbqCN_LtyJlMGq5O9b-178" vertex="1">
                    <mxGeometry x="83" width="27" height="40" as="geometry">
                        <mxRectangle width="27" height="40" as="alternateBounds"/>
                    </mxGeometry>
                </mxCell>
                <mxCell id="JPlbqCN_LtyJlMGq5O9b-183" value="b5" style="shape=partialRectangle;html=1;whiteSpace=wrap;connectable=0;strokeColor=inherit;overflow=hidden;fillColor=none;top=0;left=0;bottom=0;right=0;pointerEvents=1;" parent="JPlbqCN_LtyJlMGq5O9b-178" vertex="1">
                    <mxGeometry x="110" width="27" height="40" as="geometry">
                        <mxRectangle width="27" height="40" as="alternateBounds"/>
                    </mxGeometry>
                </mxCell>
                <mxCell id="JPlbqCN_LtyJlMGq5O9b-184" value="b6" style="shape=partialRectangle;html=1;whiteSpace=wrap;connectable=0;strokeColor=inherit;overflow=hidden;fillColor=none;top=0;left=0;bottom=0;right=0;pointerEvents=1;" parent="JPlbqCN_LtyJlMGq5O9b-178" vertex="1">
                    <mxGeometry x="137" width="27" height="40" as="geometry">
                        <mxRectangle width="27" height="40" as="alternateBounds"/>
                    </mxGeometry>
                </mxCell>
                <mxCell id="JPlbqCN_LtyJlMGq5O9b-185" value="b7" style="shape=partialRectangle;html=1;whiteSpace=wrap;connectable=0;strokeColor=inherit;overflow=hidden;fillColor=none;top=0;left=0;bottom=0;right=0;pointerEvents=1;" parent="JPlbqCN_LtyJlMGq5O9b-178" vertex="1">
                    <mxGeometry x="164" width="27" height="40" as="geometry">
                        <mxRectangle width="27" height="40" as="alternateBounds"/>
                    </mxGeometry>
                </mxCell>
                <mxCell id="JPlbqCN_LtyJlMGq5O9b-186" value="b8" style="shape=partialRectangle;html=1;whiteSpace=wrap;connectable=0;strokeColor=inherit;overflow=hidden;fillColor=none;top=0;left=0;bottom=0;right=0;pointerEvents=1;" parent="JPlbqCN_LtyJlMGq5O9b-178" vertex="1">
                    <mxGeometry x="191" width="27" height="40" as="geometry">
                        <mxRectangle width="27" height="40" as="alternateBounds"/>
                    </mxGeometry>
                </mxCell>
                <mxCell id="JPlbqCN_LtyJlMGq5O9b-187" value="" style="shape=table;startSize=0;container=1;collapsible=0;childLayout=tableLayout;" parent="1" vertex="1">
                    <mxGeometry x="-930" y="360" width="220" height="40" as="geometry"/>
                </mxCell>
                <mxCell id="JPlbqCN_LtyJlMGq5O9b-188" value="" style="shape=tableRow;horizontal=0;startSize=0;swimlaneHead=0;swimlaneBody=0;strokeColor=inherit;top=0;left=0;bottom=0;right=0;collapsible=0;dropTarget=0;fillColor=none;points=[[0,0.5],[1,0.5]];portConstraint=eastwest;" parent="JPlbqCN_LtyJlMGq5O9b-187" vertex="1">
                    <mxGeometry width="220" height="40" as="geometry"/>
                </mxCell>
                <mxCell id="JPlbqCN_LtyJlMGq5O9b-189" value="b2" style="shape=partialRectangle;html=1;whiteSpace=wrap;connectable=0;strokeColor=inherit;overflow=hidden;fillColor=none;top=0;left=0;bottom=0;right=0;pointerEvents=1;" parent="JPlbqCN_LtyJlMGq5O9b-188" vertex="1">
                    <mxGeometry width="27" height="40" as="geometry">
                        <mxRectangle width="27" height="40" as="alternateBounds"/>
                    </mxGeometry>
                </mxCell>
                <mxCell id="JPlbqCN_LtyJlMGq5O9b-190" value="b6" style="shape=partialRectangle;html=1;whiteSpace=wrap;connectable=0;strokeColor=inherit;overflow=hidden;fillColor=none;top=0;left=0;bottom=0;right=0;pointerEvents=1;" parent="JPlbqCN_LtyJlMGq5O9b-188" vertex="1">
                    <mxGeometry x="27" width="28" height="40" as="geometry">
                        <mxRectangle width="28" height="40" as="alternateBounds"/>
                    </mxGeometry>
                </mxCell>
                <mxCell id="JPlbqCN_LtyJlMGq5O9b-191" value="b3" style="shape=partialRectangle;html=1;whiteSpace=wrap;connectable=0;strokeColor=inherit;overflow=hidden;fillColor=none;top=0;left=0;bottom=0;right=0;pointerEvents=1;" parent="JPlbqCN_LtyJlMGq5O9b-188" vertex="1">
                    <mxGeometry x="55" width="28" height="40" as="geometry">
                        <mxRectangle width="28" height="40" as="alternateBounds"/>
                    </mxGeometry>
                </mxCell>
                <mxCell id="JPlbqCN_LtyJlMGq5O9b-192" value="b1" style="shape=partialRectangle;html=1;whiteSpace=wrap;connectable=0;strokeColor=inherit;overflow=hidden;fillColor=none;top=0;left=0;bottom=0;right=0;pointerEvents=1;" parent="JPlbqCN_LtyJlMGq5O9b-188" vertex="1">
                    <mxGeometry x="83" width="27" height="40" as="geometry">
                        <mxRectangle width="27" height="40" as="alternateBounds"/>
                    </mxGeometry>
                </mxCell>
                <mxCell id="JPlbqCN_LtyJlMGq5O9b-193" value="b4" style="shape=partialRectangle;html=1;whiteSpace=wrap;connectable=0;strokeColor=inherit;overflow=hidden;fillColor=none;top=0;left=0;bottom=0;right=0;pointerEvents=1;" parent="JPlbqCN_LtyJlMGq5O9b-188" vertex="1">
                    <mxGeometry x="110" width="27" height="40" as="geometry">
                        <mxRectangle width="27" height="40" as="alternateBounds"/>
                    </mxGeometry>
                </mxCell>
                <mxCell id="JPlbqCN_LtyJlMGq5O9b-194" value="b8" style="shape=partialRectangle;html=1;whiteSpace=wrap;connectable=0;strokeColor=inherit;overflow=hidden;fillColor=none;top=0;left=0;bottom=0;right=0;pointerEvents=1;" parent="JPlbqCN_LtyJlMGq5O9b-188" vertex="1">
                    <mxGeometry x="137" width="28" height="40" as="geometry">
                        <mxRectangle width="28" height="40" as="alternateBounds"/>
                    </mxGeometry>
                </mxCell>
                <mxCell id="JPlbqCN_LtyJlMGq5O9b-195" value="b5" style="shape=partialRectangle;html=1;whiteSpace=wrap;connectable=0;strokeColor=inherit;overflow=hidden;fillColor=none;top=0;left=0;bottom=0;right=0;pointerEvents=1;" parent="JPlbqCN_LtyJlMGq5O9b-188" vertex="1">
                    <mxGeometry x="165" width="28" height="40" as="geometry">
                        <mxRectangle width="28" height="40" as="alternateBounds"/>
                    </mxGeometry>
                </mxCell>
                <mxCell id="JPlbqCN_LtyJlMGq5O9b-196" value="b7" style="shape=partialRectangle;html=1;whiteSpace=wrap;connectable=0;strokeColor=inherit;overflow=hidden;fillColor=none;top=0;left=0;bottom=0;right=0;pointerEvents=1;" parent="JPlbqCN_LtyJlMGq5O9b-188" vertex="1">
                    <mxGeometry x="193" width="27" height="40" as="geometry">
                        <mxRectangle width="27" height="40" as="alternateBounds"/>
                    </mxGeometry>
                </mxCell>
                <mxCell id="JPlbqCN_LtyJlMGq5O9b-197" value="" style="endArrow=none;html=1;rounded=0;exitX=0.679;exitY=0.998;exitDx=0;exitDy=0;exitPerimeter=0;entryX=0.185;entryY=-0.07;entryDx=0;entryDy=0;entryPerimeter=0;startArrow=classic;startFill=1;endFill=0;strokeColor=#FF0000;" parent="1" source="JPlbqCN_LtyJlMGq5O9b-178" target="JPlbqCN_LtyJlMGq5O9b-188" edge="1">
                    <mxGeometry width="50" height="50" relative="1" as="geometry">
                        <mxPoint x="-690" y="310" as="sourcePoint"/>
                        <mxPoint x="-640" y="260" as="targetPoint"/>
                    </mxGeometry>
                </mxCell>
                <mxCell id="JPlbqCN_LtyJlMGq5O9b-198" value="" style="endArrow=none;html=1;rounded=0;exitX=0.817;exitY=1.043;exitDx=0;exitDy=0;exitPerimeter=0;entryX=0.954;entryY=0.02;entryDx=0;entryDy=0;entryPerimeter=0;startArrow=classic;startFill=1;endFill=0;strokeColor=#FF0000;" parent="1" source="JPlbqCN_LtyJlMGq5O9b-178" target="JPlbqCN_LtyJlMGq5O9b-188" edge="1">
                    <mxGeometry width="50" height="50" relative="1" as="geometry">
                        <mxPoint x="-908" y="322" as="sourcePoint"/>
                        <mxPoint x="-879" y="367" as="targetPoint"/>
                    </mxGeometry>
                </mxCell>
                <mxCell id="JPlbqCN_LtyJlMGq5O9b-199" value="" style="endArrow=none;html=1;rounded=0;entryX=0.309;entryY=0.02;entryDx=0;entryDy=0;entryPerimeter=0;startArrow=classic;startFill=1;endFill=0;strokeColor=#FF0000;" parent="1" target="JPlbqCN_LtyJlMGq5O9b-188" edge="1">
                    <mxGeometry width="50" height="50" relative="1" as="geometry">
                        <mxPoint x="-860" y="292" as="sourcePoint"/>
                        <mxPoint x="-879" y="367" as="targetPoint"/>
                    </mxGeometry>
                </mxCell>
                <mxCell id="JPlbqCN_LtyJlMGq5O9b-200" value="" style="endArrow=none;html=1;rounded=0;entryX=0.553;entryY=0.02;entryDx=0;entryDy=0;entryPerimeter=0;exitX=0.429;exitY=1.02;exitDx=0;exitDy=0;exitPerimeter=0;startArrow=classic;startFill=1;endFill=0;strokeColor=#FF0000;" parent="1" source="JPlbqCN_LtyJlMGq5O9b-178" target="JPlbqCN_LtyJlMGq5O9b-188" edge="1">
                    <mxGeometry width="50" height="50" relative="1" as="geometry">
                        <mxPoint x="-851" y="291" as="sourcePoint"/>
                        <mxPoint x="-852" y="371" as="targetPoint"/>
                    </mxGeometry>
                </mxCell>
                <mxCell id="JPlbqCN_LtyJlMGq5O9b-201" value="" style="endArrow=none;html=1;rounded=0;exitX=0.083;exitY=1.066;exitDx=0;exitDy=0;exitPerimeter=0;entryX=0.437;entryY=-0.025;entryDx=0;entryDy=0;entryPerimeter=0;startArrow=classic;startFill=1;endFill=0;strokeColor=#FF0000;" parent="1" source="JPlbqCN_LtyJlMGq5O9b-178" target="JPlbqCN_LtyJlMGq5O9b-188" edge="1">
                    <mxGeometry width="50" height="50" relative="1" as="geometry">
                        <mxPoint x="-879" y="302" as="sourcePoint"/>
                        <mxPoint x="-852" y="371" as="targetPoint"/>
                    </mxGeometry>
                </mxCell>
                <mxCell id="JPlbqCN_LtyJlMGq5O9b-202" value="" style="endArrow=none;html=1;rounded=0;exitX=0.933;exitY=0.975;exitDx=0;exitDy=0;exitPerimeter=0;entryX=0.677;entryY=-0.002;entryDx=0;entryDy=0;entryPerimeter=0;startArrow=classic;startFill=1;endFill=0;strokeColor=#FF0000;" parent="1" source="JPlbqCN_LtyJlMGq5O9b-178" target="JPlbqCN_LtyJlMGq5O9b-188" edge="1">
                    <mxGeometry width="50" height="50" relative="1" as="geometry">
                        <mxPoint x="-852" y="299" as="sourcePoint"/>
                        <mxPoint x="-824" y="369" as="targetPoint"/>
                    </mxGeometry>
                </mxCell>
                <mxCell id="JPlbqCN_LtyJlMGq5O9b-203" value="" style="endArrow=none;html=1;rounded=0;exitX=0.187;exitY=1.043;exitDx=0;exitDy=0;exitPerimeter=0;entryX=0.065;entryY=0.02;entryDx=0;entryDy=0;entryPerimeter=0;startArrow=classic;startFill=1;endFill=0;strokeColor=#FF0000;" parent="1" source="JPlbqCN_LtyJlMGq5O9b-178" target="JPlbqCN_LtyJlMGq5O9b-188" edge="1">
                    <mxGeometry width="50" height="50" relative="1" as="geometry">
                        <mxPoint x="-850" y="300" as="sourcePoint"/>
                        <mxPoint x="-771" y="370" as="targetPoint"/>
                    </mxGeometry>
                </mxCell>
                <mxCell id="JPlbqCN_LtyJlMGq5O9b-204" value="" style="endArrow=none;html=1;rounded=0;exitX=0.579;exitY=1.043;exitDx=0;exitDy=0;exitPerimeter=0;entryX=0.809;entryY=-0.025;entryDx=0;entryDy=0;entryPerimeter=0;startArrow=classic;startFill=1;endFill=0;strokeColor=#FF0000;" parent="1" source="JPlbqCN_LtyJlMGq5O9b-178" target="JPlbqCN_LtyJlMGq5O9b-188" edge="1">
                    <mxGeometry width="50" height="50" relative="1" as="geometry">
                        <mxPoint x="-823" y="300" as="sourcePoint"/>
                        <mxPoint x="-906" y="371" as="targetPoint"/>
                    </mxGeometry>
                </mxCell>
                <mxCell id="JPlbqCN_LtyJlMGq5O9b-205" value="データ" style="text;html=1;align=center;verticalAlign=middle;resizable=0;points=[];autosize=1;strokeColor=#d79b00;fillColor=#ffe6cc;" parent="1" vertex="1">
                    <mxGeometry x="-1305" y="550" width="60" height="30" as="geometry"/>
                </mxCell>
                <mxCell id="JPlbqCN_LtyJlMGq5O9b-207" value="処理" style="rounded=0;whiteSpace=wrap;html=1;" parent="1" vertex="1">
                    <mxGeometry x="-1305" y="585" width="65" height="30" as="geometry"/>
                </mxCell>
                <mxCell id="JPlbqCN_LtyJlMGq5O9b-208" value="凡例" style="text;html=1;align=left;verticalAlign=middle;resizable=0;points=[];autosize=1;strokeColor=none;fillColor=none;fontStyle=1" parent="1" vertex="1">
                    <mxGeometry x="-1297.5" y="520" width="50" height="30" as="geometry"/>
                </mxCell>
            </root>
        </mxGraphModel>
    </diagram>
</mxfile>